<svg xmlns="http://www.w3.org/2000/svg" width="137" height="50" viewBox="0 0 137 50" fill="none">
  <g clip-path="url(#clip0_228_42)">
    <path d="M20.9341 27.7772C21.1484 28.4604 21.3453 29.0391 21.5118 29.6277C22.7345 33.9377 22.5224 38.1717 20.6904 42.2685C19.3785 45.2025 17.2876 47.4184 14.1579 48.4117C11.5786 49.2297 9.05474 49.134 6.86924 47.2846C5.21026 45.8813 4.4281 43.9841 4.0789 41.8943C3.58936 38.968 3.80911 36.0417 4.14634 33.1186C4.20182 32.6378 4.26492 32.1569 4.33998 31.5499C3.58283 31.9296 2.92794 32.2548 2.27414 32.5866C1.14604 33.1588 1.09164 33.0936 1.03072 31.8197C0.978508 30.7231 0.835999 29.6277 0.667381 28.542C0.607549 28.1558 0.701105 27.985 1.02202 27.8196C4.11806 26.2336 7.20865 24.6355 10.3047 23.0483C10.4505 22.9732 10.6343 22.9754 10.8008 22.9417C10.8171 23.1114 10.8693 23.2855 10.8464 23.4486C10.3961 26.549 9.85976 29.6385 9.50403 32.7498C9.23424 35.105 9.15156 37.4863 9.52905 39.8513C9.59976 40.2963 9.7216 40.7379 9.86085 41.1676C10.1916 42.1891 10.767 43.0213 11.8984 43.2074C13.0863 43.4021 14.0687 42.918 14.8421 42.0336C16.3727 40.281 16.7611 38.1369 16.859 35.9122C16.9645 33.4961 16.376 31.2235 15.1957 29.1349C14.7323 28.3146 14.0382 27.613 13.3898 26.9124C13.0309 26.5251 13.0091 26.2618 13.3333 25.8506C14.2525 24.6834 15.1456 23.4943 16.0214 22.2944C16.265 21.9615 16.4848 21.8974 16.884 22.0007C18.8803 22.5164 20.8721 23.0712 22.8966 23.4519C23.9475 23.6488 25.0604 23.5204 26.1449 23.5226C26.3582 23.5226 26.5768 23.4639 26.7846 23.4051C27.607 23.1756 27.8855 22.6469 27.5156 21.88C27.2502 21.3295 26.8803 20.8302 26.5344 20.271C26.6084 20.2003 26.6834 20.098 26.7835 20.0382C27.9388 19.3572 29.1007 18.6871 30.2538 18.0039C30.5203 17.8462 30.7303 17.8005 30.9587 18.079C32.1989 19.5911 33.1138 21.2566 33.3933 23.2191C33.6218 24.827 33.0115 26.0584 31.6441 26.908C30.0873 27.8751 28.3479 28.2472 26.5507 28.2134C24.8896 28.1819 23.2306 27.9828 21.5716 27.8545C21.3954 27.8414 21.2202 27.812 20.9363 27.7772H20.9341Z" fill="#0810AC"/>
    <path d="M57.0498 23.2268V25.7158C57.0923 25.7495 57.1347 25.7843 57.176 25.818C58.0028 24.2309 59.2549 23.2725 61.0194 23.0853C62.8612 22.8906 64.1981 23.676 65.1304 25.3579C65.2675 25.087 65.3545 24.9162 65.4405 24.7454C65.955 23.7185 66.6654 22.8602 67.6586 22.2662C70.1139 20.8008 72.8716 21.8463 73.7016 24.5822C73.8822 25.1795 73.9431 25.8278 73.966 26.4555C74.0073 27.5782 73.9769 28.703 73.978 29.8268C73.978 30.0084 73.9747 30.1901 73.9867 30.3707C74.0628 31.4966 74.4022 31.6914 75.3965 31.1877C75.5706 31.0996 75.7468 31.0158 76.0068 30.8896C76.047 31.1431 76.1036 31.3258 76.1004 31.5075C76.0819 32.7216 76.071 33.9367 76.0035 35.1475C75.9905 35.3792 75.786 35.7012 75.5814 35.8056C74.3848 36.4105 73.1088 36.7521 71.7576 36.7009C70.078 36.6378 68.828 35.4804 68.7182 33.8062C68.6322 32.4888 68.6768 31.1627 68.6551 29.8409C68.6475 29.4069 68.6366 28.9695 68.5855 28.5388C68.4886 27.7185 68.0948 27.2714 67.4617 27.2116C66.6599 27.1365 65.9343 27.5662 65.7135 28.3005C65.6156 28.6247 65.5732 28.9783 65.5754 29.3177C65.5928 31.9459 65.6243 34.5742 65.6591 37.2013C65.6635 37.5418 65.6254 37.7942 65.2142 37.8726C63.7902 38.1456 62.3695 38.4339 60.952 38.7352C60.5027 38.831 60.2949 38.7624 60.2949 38.2283C60.2982 35.7088 60.2655 33.1893 60.2438 30.671C60.2416 30.4175 60.2438 30.1607 60.209 29.9116C60.1002 29.1588 59.6868 28.6998 59.082 28.6312C58.3183 28.5453 57.5742 28.9608 57.3599 29.6658C57.2413 30.0574 57.1934 30.4849 57.1956 30.8961C57.2076 33.5418 57.2304 36.1886 57.2805 38.8342C57.2892 39.3074 57.1619 39.5065 56.6832 39.5935C55.3114 39.8448 53.9505 40.156 52.582 40.429C51.9075 40.5639 51.864 40.5204 51.8608 39.8285C51.8477 36.6748 51.8749 33.519 51.8064 30.3664C51.7803 29.1643 51.5529 27.9633 51.3854 26.7666C51.3408 26.4468 51.3234 26.2282 51.6573 26.0508C53.2739 25.1936 54.8796 24.3135 56.4918 23.4454C56.6278 23.3725 56.7811 23.3301 57.0488 23.2268H57.0498Z" fill="#0810AC"/>
    <path d="M125.416 0V12.5136L125.563 12.5604C125.673 12.4103 125.787 12.2645 125.89 12.1111C126.949 10.537 128.475 9.82333 130.322 9.7722C131.918 9.72869 133.367 10.7872 133.883 12.3896C134.091 13.0347 134.183 13.7353 134.213 14.4152C134.264 15.6096 134.227 16.8074 134.227 18.004C134.227 18.1487 134.223 18.2945 134.228 18.4391C134.269 19.6456 134.654 19.8719 135.713 19.3149C135.868 19.2333 136.028 19.1593 136.263 19.044C136.301 19.3051 136.355 19.4922 136.351 19.6793C136.334 20.8749 136.293 22.0704 136.285 23.266C136.283 23.6217 136.16 23.8382 135.838 23.9872C134.689 24.5203 133.492 24.8564 132.22 24.8597C130.531 24.864 129.231 23.898 128.997 22.2347C128.787 20.7356 128.814 19.2039 128.74 17.6874C128.729 17.471 128.74 17.2523 128.736 17.0347C128.721 16.1209 128.23 15.4976 127.459 15.404C126.633 15.3039 125.793 15.8381 125.575 16.6377C125.496 16.9292 125.477 17.2458 125.478 17.5504C125.481 19.997 125.498 22.4446 125.509 24.8912C125.512 25.693 125.505 25.6788 124.731 25.8344C123.416 26.0976 122.108 26.3903 120.793 26.6568C120.014 26.8145 119.98 26.7776 119.978 26.0041C119.964 19.6782 119.969 13.3512 119.918 7.02537C119.909 5.93316 119.692 4.83878 119.511 3.75528C119.442 3.33536 119.476 3.10365 119.889 2.89152C121.548 2.03755 123.187 1.14334 124.835 0.266525C124.974 0.19255 125.124 0.134894 125.415 0.00217571L125.416 0Z" fill="#0810AC"/>
    <path d="M106.896 31.514V34.0705C106.945 34.0901 106.995 34.1097 107.044 34.1282C107.149 33.9824 107.255 33.8366 107.359 33.6897C108.488 32.0775 110.038 31.2714 112.002 31.3704C114.175 31.4803 115.805 33.5157 115.747 35.9296C115.716 37.234 115.732 38.5405 115.731 39.8448C115.731 40.0254 115.745 40.2071 115.768 40.3866C115.865 41.1285 116.191 41.3134 116.895 41.023C117.154 40.9164 117.406 40.7945 117.739 40.6455C117.763 40.9109 117.793 41.0828 117.792 41.2547C117.778 42.4328 117.747 43.611 117.746 44.7891C117.746 45.1862 117.601 45.4244 117.239 45.5909C116.136 46.0956 114.985 46.3894 113.772 46.4144C112.067 46.4492 110.707 45.4157 110.492 43.7209C110.304 42.2359 110.329 40.7227 110.263 39.2226C110.254 39.005 110.266 38.7874 110.261 38.5699C110.242 37.6822 109.816 37.1121 109.077 36.9762C108.317 36.8358 107.426 37.2753 107.173 38.0064C107.016 38.4578 106.943 38.9615 106.942 39.4412C106.94 41.9607 106.962 44.4802 107.003 46.9997C107.011 47.4761 106.856 47.66 106.386 47.747C104.979 48.0081 103.583 48.329 102.181 48.6151C101.575 48.7381 101.529 48.6902 101.524 48.0636C101.496 44.5465 101.495 41.0306 101.426 37.5146C101.409 36.6944 101.174 35.8753 101.014 35.0604C100.951 34.7363 100.981 34.5165 101.308 34.3468C103.015 33.4657 104.713 32.566 106.416 31.6761C106.523 31.6206 106.647 31.5967 106.896 31.514Z" fill="#0810AC"/>
    <path d="M128.918 41.8411C128.261 42.4481 127.681 43.0475 127.037 43.5654C125.9 44.4803 124.606 44.8697 123.127 44.6641C121.478 44.4346 120.381 43.5828 120.071 41.9499C119.864 40.8566 119.856 39.7198 119.822 38.6004C119.778 37.1514 119.839 35.6991 119.77 34.2512C119.734 33.4994 119.544 32.751 119.372 32.0123C119.275 31.5946 119.335 31.3553 119.744 31.141C121.302 30.3273 122.84 29.4755 124.386 28.6367C124.972 28.3191 125.052 28.368 125.051 29.0458C125.044 31.8916 125.031 34.7374 125.035 37.5833C125.037 38.9083 125.957 39.5479 127.187 39.103C127.795 38.8832 128.185 38.4231 128.188 37.803C128.199 35.438 128.527 33.0512 127.853 30.7221C127.706 30.213 127.805 29.9563 128.296 29.7007C129.789 28.9217 131.249 28.0765 132.724 27.2595C132.907 27.1583 133.101 27.0757 133.385 26.9375C133.411 27.2813 133.444 27.5228 133.444 27.7643C133.442 30.8277 133.434 33.8922 133.428 36.9556C133.426 38.1729 133.731 38.3643 134.814 37.8378C134.953 37.7704 135.099 37.7181 135.28 37.6431C135.321 37.8008 135.371 37.9009 135.37 38.001C135.366 39.3238 135.367 40.6477 135.331 41.9706C135.326 42.1435 135.163 42.3807 135.006 42.4699C134.08 42.9921 133.091 43.3413 132.016 43.375C130.724 43.4152 129.701 42.8789 128.919 41.8389L128.918 41.8411Z" fill="#0810AC"/>
    <path d="M106.377 13.6612C106.377 14.4184 106.377 15.0668 106.377 15.7162C106.377 18.4348 106.376 21.1533 106.378 23.8719C106.378 24.7933 106.729 25.0108 107.569 24.6257C107.776 24.5311 107.983 24.4386 108.213 24.3364C108.264 24.456 108.314 24.5191 108.314 24.5822C108.314 25.941 108.315 27.3008 108.292 28.6595C108.29 28.8118 108.18 29.0337 108.055 29.1023C106.76 29.8094 105.412 30.3054 103.897 29.9497C103.03 29.7463 102.394 29.1958 101.833 28.5083C101.315 29.0218 100.849 29.5287 100.337 29.9823C99.0423 31.1257 97.5585 31.6228 95.8168 31.3084C94.2285 31.0212 93.3017 30.077 92.984 28.5442C92.8274 27.787 92.7708 27.0005 92.7502 26.2249C92.7143 24.8846 92.7284 23.5433 92.7436 22.202C92.7578 21.001 92.7186 19.8098 92.3194 18.6589C92.2106 18.3445 92.2073 18.0877 92.5772 17.8919C94.1959 17.0379 95.8005 16.1557 97.4116 15.2887C97.5465 15.2158 97.6977 15.1734 97.9229 15.0852C97.9468 15.3888 97.9816 15.6139 97.9816 15.838C97.9784 18.5207 97.9708 21.2033 97.9653 23.886C97.9653 24.0851 97.9599 24.2852 97.9751 24.4843C98.036 25.2708 98.4929 25.8137 99.1609 25.9029C100.059 26.0225 100.867 25.6059 101.053 24.8161C101.188 24.2428 101.198 23.6336 101.208 23.0396C101.226 21.9888 101.251 20.9336 101.175 19.887C101.11 18.9896 100.923 18.0986 100.762 17.2109C100.709 16.915 100.685 16.6996 100.998 16.5288C102.621 15.6444 104.236 14.7437 105.856 13.8527C105.976 13.7863 106.116 13.7559 106.379 13.6602L106.377 13.6612Z" fill="#0810AC"/>
    <path d="M76.379 27.0224C76.4084 23.2181 78.3034 20.4039 81.7585 19.2518C85.7096 17.9344 90.4047 19.7544 91.1249 25.1948C91.4045 27.3052 91.0313 29.3265 89.8075 31.1116C87.7047 34.1826 83.3163 35.463 79.598 33.2917C77.6518 32.1549 76.7609 30.2098 76.4378 28.0134C76.3877 27.674 76.3953 27.327 76.3779 27.0213L76.379 27.0224ZM81.3657 26.5557C81.4908 27.0235 81.5681 27.5097 81.7508 27.9536C82.1229 28.8565 82.8267 29.383 83.8134 29.358C84.8219 29.333 85.567 28.8152 85.9554 27.8655C86.3927 26.7939 86.247 25.755 85.6269 24.8075C84.9078 23.7099 83.4055 23.5249 82.3829 24.3734C81.7084 24.9326 81.4354 25.6767 81.3668 26.5568L81.3657 26.5557Z" fill="#0810AC"/>
    <path d="M37.5272 39.9667C37.5272 40.4921 37.5043 41.0176 37.5337 41.5419C37.5663 42.1359 37.3651 42.6221 36.9071 42.9724C36.4208 43.3445 35.9334 43.7459 35.3841 43.9994C33.0713 45.0676 30.7117 45.5169 28.2488 44.4302C26.369 43.6012 25.316 42.0978 24.6121 40.2528C23.0532 36.1657 24.9842 32.2908 27.7299 30.684C30.1134 29.2894 32.5829 29.0359 35.0664 30.4273C36.4883 31.2236 37.3564 32.4485 37.6218 34.0825C37.6871 34.4839 37.5924 34.758 37.2595 35.0191C35.247 36.5933 33.2475 38.1837 31.2557 39.7839C31.0642 39.9373 30.9532 40.1908 30.8042 40.3975C31.0599 40.5041 31.309 40.6814 31.5711 40.7032C32.4578 40.775 33.2998 40.5617 34.0884 40.1549C35.1611 39.6023 36.1173 38.8962 36.9158 37.9814C37.03 37.8508 37.2291 37.7942 37.389 37.704C37.4477 37.8791 37.5511 38.0521 37.5587 38.2294C37.5805 38.8081 37.5663 39.389 37.5663 39.9689H37.5272V39.9667ZM29.019 37.1687C30.12 36.2734 31.1763 35.414 32.2239 34.5611C31.8703 33.9411 31.4732 33.7159 30.8216 33.7692C29.8708 33.8486 29.1887 34.3338 28.8243 35.2128C28.5589 35.8546 28.5415 36.4997 29.018 37.1687H29.019Z" fill="#0810AC"/>
    <path d="M110.497 18.437C110.012 18.7025 109.601 18.9287 109.189 19.1517C108.693 19.4215 108.57 19.3682 108.569 18.8265C108.565 17.5395 108.573 16.2526 108.609 14.9657C108.613 14.7927 108.775 14.5838 108.923 14.4653C109.146 14.2869 109.407 14.1302 109.677 14.0388C110.474 13.7701 110.643 13.2153 110.597 12.4342C110.526 11.1876 110.584 9.93435 110.193 8.71813C110.139 8.5506 110.275 8.19161 110.428 8.10893C112.177 7.15379 113.947 6.23456 115.712 5.30988C115.785 5.2718 115.88 5.27289 116.033 5.24243V11.4062C116.305 11.2866 116.5 11.2104 116.686 11.1169C117.123 10.8982 117.556 10.6687 117.993 10.4478C118.239 10.3238 118.438 10.3499 118.439 10.673C118.442 12.0687 118.439 13.4644 118.41 14.8602C118.407 14.9918 118.229 15.1626 118.091 15.242C117.555 15.5466 116.992 15.8022 116.463 16.1166C116.308 16.2091 116.138 16.4332 116.136 16.5996C116.105 18.375 116.079 20.1515 116.11 21.9258C116.126 22.87 116.512 23.0582 117.383 22.6459C117.624 22.5317 117.86 22.4088 118.186 22.2456C118.219 22.535 118.264 22.7384 118.261 22.9418C118.247 24.1015 118.235 25.2622 118.188 26.4208C118.18 26.6449 118.084 26.9767 117.922 27.0659C116.512 27.8426 115 28.2973 113.383 28.0341C111.978 27.8056 111.043 26.9506 110.828 25.5081C110.671 24.4561 110.619 23.3846 110.581 22.3196C110.539 21.1425 110.567 19.9633 110.562 18.7851C110.562 18.7003 110.531 18.6154 110.497 18.4359V18.437Z" fill="#0810AC"/>
    <path d="M44.8192 26.2097V29.0055C44.8638 29.0218 44.9095 29.0381 44.9541 29.0544C45.0542 28.9478 45.1651 28.8488 45.2532 28.7324C45.944 27.823 46.6272 26.907 47.3224 26.0019C47.4137 25.8834 47.5639 25.8105 47.6868 25.7158C47.7738 25.8431 47.8837 25.9606 47.9435 26.0987C48.878 28.2603 49.7961 30.4284 50.7469 32.5834C50.8796 32.8848 50.8339 33.0414 50.6022 33.2242C49.4502 34.1347 48.3003 35.0474 47.1581 35.971C46.7795 36.2767 46.6501 36.1527 46.4836 35.7382C46.0778 34.7309 45.6101 33.7485 45.1597 32.7597C45.1107 32.6531 45.0172 32.5671 44.8497 32.3485C44.8301 32.6955 44.8061 32.9022 44.8083 33.1078C44.8322 35.8633 44.8497 38.6178 44.8975 41.3733C44.9051 41.8291 44.7746 42.0043 44.3231 42.087C43.058 42.3187 41.8037 42.6091 40.5428 42.8648C39.7465 43.0269 39.703 42.9844 39.6987 42.1805C39.6791 38.7538 39.6813 35.3281 39.6247 31.9025C39.6127 31.1714 39.4028 30.4404 39.2581 29.7148C39.1982 29.4134 39.2135 29.2057 39.5203 29.0392C41.114 28.1765 42.699 27.2965 44.2883 26.4262C44.4112 26.3587 44.5483 26.3185 44.8181 26.2097H44.8192Z" fill="#0810AC"/>
    <path d="M93.927 46.9247C93.9227 45.1602 95.1889 43.7917 96.8077 43.8112C98.3644 43.8297 99.6198 45.195 99.6306 46.8844C99.6415 48.551 98.3176 49.999 96.7837 50C95.1748 50 93.9314 48.662 93.9281 46.9247H93.927Z" fill="#0810AC"/>
  </g>
  <defs>
    <clipPath id="clip0_228_42">
      <rect width="135.702" height="50" fill="white" transform="translate(0.648926)"/>
    </clipPath>
  </defs>
</svg>
