<svg id="Capa_1" data-name="Capa 1" xmlns="http://www.w3.org/2000/svg" viewBox="0 0 903.69 434.83"><defs><style>.cls-1{fill:#122a59;}</style></defs><path class="cls-1" d="M256.71,316.49c-9.07,2.23-22.06-.92-29.48-6.49-8.81-6.61-13.16-17.08-15.28-27.14-2.2-10.44.71-22.51,7.07-31.64a40.83,40.83,0,0,1,26.84-16.89c9.46-1.55,17.94,0,25.33,4.68s11.68,11.1,12.92,19.49c.34,2.27.25,2.82-1,3.74l-34.46,27.31c-1.73,1.32-1.94,2.65-1,3.39,1.52,1.17,5.26,1.44,9.84.67,3.76-.64,8-2.43,12.73-5.56a44.69,44.69,0,0,0,11.06-9.92,1.35,1.35,0,0,1,2.45.66c-.11,8.54-.15,12.81-.19,21.34a7,7,0,0,1-1.13,3.42C276,311.65,266,314.2,256.71,316.49Zm-19.4-53.67a11.48,11.48,0,0,0-.6,10.66c.67,1.15,1.38,1.38,2.12.72l15.56-12.65c1.2-.92,1.18-1.1.34-2.21-1.88-2.55-4.7-3.5-8.63-2.84A12.09,12.09,0,0,0,237.31,262.82Z"/><path class="cls-1" d="M557.36,183c7.28,5.31,13.76,16.92,14.88,26,1.38,11.12-.45,23.29-6.85,32.85-6.21,9.29-16.42,15.07-26.94,17.08-9,1.73-22.09-.71-29.75-6.08s-14-17-15.12-26.1c-1.41-11.13.6-23.22,7.07-32.71,6.35-9.32,16.66-15.25,27.28-17.32C536.88,175,549.93,177.63,557.36,183Zm-37.09,37.24c1.29,8.56,7.28,13.63,14.64,12.39,7.68-1.3,12.08-8.66,10.8-17.22S538.49,201.8,531.13,203C523.44,204.34,519,211.72,520.27,220.28Z"/><path class="cls-1" d="M618,326a17.07,17.07,0,0,1-3.82,12A14,14,0,0,1,604,343.69c-8.6.66-15.77-6.05-16.38-15.21-.62-9.34,5.58-17.08,14.18-17.74C610.23,310.09,617.45,317,618,326Z"/><path class="cls-1" d="M663.38,206.06l-2.24,1.24c-3.87,1.83-6,1.41-6.71-2,0-7.95-.06-16.4-.08-23.72q0-12.34.07-24.68c0-2.48.09-5.11.11-6.75s-.4-2.17-1.56-1.53c-9,5-18.17,10.34-26.44,14.68-1.34.69-2.66,1.1-2.47,2.19.3,1.73.76,3.25,1.15,4.77,1.59,6.11,1.59,6.11,1.56,25.9,0,.41,0,.79,0,1.15q0,3.36,0,6.72c-.28,6-2.62,9.22-7.86,10.1-5.63,1-9.25-2-9.83-7.61,0-5.74,0-11.5,0-16.73q0-11.66,0-23.31c0-2.94.11-6.6.14-8.69,0-1.68-.52-2.11-1.57-1.53-8.94,5-18.41,10.16-26.69,14.5-1.33.69-2.66,1.09-2.47,2.19.3,1.73.77,3.25,1.16,4.77,1.27,4.89,1.52,5.86,1.56,16.21,0,2.58.16,14.47.11,15.63-.91,21.36,2.66,34.24,23.18,34,7.8-.1,16.73-5.13,25.44-15.94,1.61,1.76,10,16.22,33.35,3.8h0l.1-.06.18-.09,0,0c1-.56,1.17-1,1.11-2.27v0a1,1,0,0,0,0-.23c0-6.62.11-14.29.15-21.08v0C665,205.92,664.5,205.45,663.38,206.06Z"/><path class="cls-1" d="M809.08,277.76,806.84,279c-3.87,1.83-6,1.4-6.71-2,0-7.95-.07-16.4-.08-23.72q0-12.33.07-24.67c0-2.48.08-5.11.11-6.76s-.41-2.16-1.57-1.52c-8.94,5-18.16,10.34-26.44,14.67-1.33.7-2.65,1.1-2.47,2.19.3,1.74.77,3.26,1.16,4.78,1.59,6.1,1.59,6.1,1.56,25.9,0,.41,0,.79,0,1.15v6.72c-.27,6-2.62,9.22-7.85,10.1-5.64,1-9.26-2-9.83-7.62,0-5.73,0-11.5-.05-16.72q0-11.66,0-23.31c0-2.95.1-6.61.14-8.69,0-1.68-.52-2.11-1.57-1.53-8.95,5-18.41,10.16-26.69,14.49-1.34.7-2.66,1.1-2.47,2.19.3,1.74.76,3.26,1.16,4.77,1.27,4.89,1.52,5.87,1.56,16.22,0,2.58.16,14.47.11,15.62-.91,21.37,2.66,34.25,23.18,34,7.79-.1,16.73-5.13,25.44-15.95,1.61,1.76,10,16.23,33.34,3.8h0l.11-.05.18-.1,0,0c.95-.57,1.17-1,1.11-2.27v0c0-.08,0-.17,0-.23,0-6.62.11-14.3.15-21.09h0C810.67,277.62,810.2,277.15,809.08,277.76Z"/><path class="cls-1" d="M717.73,130.67c-3.45,1.68-6.71,3.42-10,5.15-1.17.62-1.5.07-1.57-1.53,0-6.88.49-26.78.53-29.65,0-1.62-.41-2.17-1.56-1.53-8.95,5-19.6,10.36-27.88,14.7-1.33.69-2.65,1.09-2.46,2.19.3,1.73.76,3.25,1.15,4.77A33.44,33.44,0,0,1,677.25,135c0,3.24,0,6.62.06,10.89,0,1.42-.41,1.87-1.63,2.55-2.58,1.45-5,2.82-7.54,4.2-1.31.72-1.59.62-1.54,2,0,8.89-.06,13.33-.09,22.22,0,1.42.57,2.16,1.73,1.5,2.47-1.41,4.61-2.6,7.61-4.26,1.17-.64,1.35-.49,1.42,1.11q0,9.3.05,18.58h0c-.11,2.76,0,5.48.06,8.23a51.91,51.91,0,0,0,1.78,12.24c2,7.47,10,12,17.54,11.59a46.36,46.36,0,0,0,19.91-5.47h0c1-.67,1.5-.86,1.51-2.46,0-4.72.21-9.33.22-13.95,0,0,.1-5.64.13-7.44s-.45-2.14-1.57-1.53l-2.59,1.43c-5.07,2.58-7.36,1.72-7.61-4.07,0-.56,0-1.13,0-1.7h0c0-6.79.25-20.54.25-27.33,0-1.43.37-1.41,1.71-2.08,3.28-1.67,6-3,9.27-4.84,1.31-.72,1.59-.62,1.54-2.05,0-8.89.06-13.33.09-22.22C719.42,130.74,718.93,130.09,717.73,130.67Z"/><path class="cls-1" d="M489.76,241.57l-1.82,1-.08,0c-5.23,2.72-7.58,1.92-7.84-4,0-.56,0-1.13,0-1.7h0q0-9.75,0-19.51c.35-15.23-9.59-28.56-25.27-26C444.52,193.11,436.86,201,433,210.5c-.09.56-1.09.55-1.33.05-4.12-8.62-13-13-22.63-11.4a24.83,24.83,0,0,0-19,14.14c-.39.78-1.4.77-1.33,0,0-2.87.14-8.73.19-11.6,0-1.62-.48-2.13-1.57-1.53-8.95,5-18.41,10.16-26.69,14.5-1.34.69-2.66,1.1-2.47,2.19.3,1.73.76,3.25,1.16,4.77,1.58,6.11,1.58,6.11,1.56,25.91,0,12.72.09,29.36.28,43.45.07,1.42.29,1.74,1.6,1.52,10.2-1.72,15.31-3.44,25.51-5.16,1.47-.25,1.74-.65,1.68-2.07-.23-14.18-.36-31.61-.42-45.8-.09-6.25,2.72-9.95,7.79-10.8,5.73-1,8.79,2.81,8.94,9.41,0,13.72,0,30,.2,43.72.1,1.59.29,1.74,1.6,1.52,10.14-1.71,15.21-3.4,25.35-5.11,1.47-.25,1.74-.65,1.67-2.07-.22-14.18-.35-30.1-.41-44.28-.09-6.26,2.72-10,7.79-10.81,5.89-1,8.9,2.44,9,10.84v8h0c-.11,2.76-.06,5.49,0,8.24,0,.16,0,.32,0,.47v1.44a4.26,4.26,0,0,0,0,.63,40.55,40.55,0,0,0,1,9.82c2,7.47,10,11.95,17.54,11.59A47.59,47.59,0,0,0,489.48,267l0,0c1-.64,1.44-.85,1.46-2.43,0-4.72.22-14,.22-14,.05-2.67.1-5.64.12-7.44S490.88,241,489.76,241.57Z"/><path class="cls-1" d="M814.25,177.8,812.1,179c-5.05,2.56-7.33,1.67-7.59-4.11,0-.29,0-.59,0-.89q0-10.69,0-21.4c-.06-8.4-2.37-15-7.25-19.73s-10.83-6.41-18.2-5.16a27.83,27.83,0,0,0-20.67,14.41c-.52.77-1.31.77-1.33.13v-.91q0-24.41-.16-48.81c0-2.49,0-4,0-4.1.05-2.87.14-8.73.19-11.6,0-1.62-.46-2.09-1.57-1.53-8.94,5-19.73,10.64-28,15-1.34.7-2.66,1.1-2.47,2.2.3,1.73.72,3,1.11,4.52,1.59,6.1,1.59,6.1,1.56,25.9,0,.43,0,.82,0,1.19.08,30.64-.12,62.23.27,92.87.07,1.42.45,1.72,1.6,1.52,10.46-1.76,15.7-3.59,26.17-5.36,1.3-.22,1.41-.6,1.67-2.07q-.26-21.3-.25-42.58c-.09-6.25,2.72-9.95,8.44-10.92,5.4-.91,9.45,2.71,9.49,8.61q0,5.09,0,10.16h0c-.12,2.75,0,5.47.06,8.22A52,52,0,0,0,777,196.78c2,7.47,10,11.95,17.54,11.59a47.76,47.76,0,0,0,19.48-5.2,2.25,2.25,0,0,0,1.47-2.45c0-4.72.22-13.95.22-13.95,0-2.67.1-5.64.13-7.44S815.37,177.19,814.25,177.8Z"/><path class="cls-1" d="M714.38,294.06l-1.65.9c-5.21,2.71-7.55,1.88-7.81-4,0-.28,0-.56,0-.85q0-10.44,0-20.9c1-15.22-10.53-27.79-25.36-25.44a28.07,28.07,0,0,0-20.84,14.44c-.09.55-1.25.57-1.33,0,0-2.51,0-3.93,0-6.17s.07-4.39.09-5.83c0-1.62-.49-2.11-1.56-1.53-9,5-19.6,10.36-27.88,14.7-1.33.69-2.65,1.09-2.46,2.19.29,1.73.76,3.25,1.15,4.77,1.11,4.25,1.44,5.55,1.53,12.61,0,17.69.08,38.35.32,56.05.07,1.42.29,1.74,1.6,1.52,10.4-1.76,15.6-3.53,26-5.29,1.47-.25,1.74-.65,1.67-2.07-.17-14.19-.24-30.46-.25-44.65.24-6.31,3-10,8.44-10.92,5.73-1,9.59,2.5,9.68,8.75l0,10h0c-.11,2.75-.06,5.48,0,8.23a52,52,0,0,0,1.73,12.26c2,7.47,10,11.95,17.54,11.59a47.57,47.57,0,0,0,19.16-5h0c.88-.59,1.37-.8,1.48-1.95h0v-.05c0-.14,0-.28,0-.45,0-4.72.22-9.32.23-14,0,0,.1-5.64.12-7.44S715.5,293.44,714.38,294.06Z"/><path class="cls-1" d="M355,250.56c-2.47-3.57-14.6-32.37-15.51-36.25-.29-1.48-1.33-1.68-2-.76-4.58,6-9.09,12.13-13.49,17.86-.44.38-1,.34-1-.37,0-3.51,0-5.27.05-8.78a3.45,3.45,0,0,0-.05-.6c0-1.46,0-2.81.06-3.81,0-1.61-.46-2.13-1.57-1.53-8.94,5-17.81,10.06-26.08,14.4-1.34.69-2.66,1.1-2.47,2.19.3,1.73.76,3.25,1.15,4.77,1.29,5,1.28,5.95,1.31,16.76,0,.46,0,.95,0,1.45,0,15.7.09,32.64.31,48.33.06,1.42.45,1.72,1.76,1.5,9.75-1.65,14.62-3.26,24.37-4.9,1.47-.25,1.57-.63,1.51-2.05-.25-10.41-.33-16.09-.45-26.53,0-1.27,0-2.47,0-3.62l.06-.06c-.07-6.6-.07-12.13,0-18.36,0-1.82.67-1.78,1.62-.08,2.82,5.08,7,14.43,8,18.05.32,1.55,1,1.48,2.18.62l1.14-.91,0,0,1.44-1.15,17.09-13.62C355.58,252.06,355.89,252,355,250.56Z"/><path class="cls-1" d="M259.56,192.05a60.72,60.72,0,0,0-12.16-20.94c-.25-.28-.68-.6-1.53-.14-4.94,2.67-15.05,8.95-20.83,12.09-.67.41-.52.9-.37,1.15,1.19,1.56,2.33,3.11,3.4,4.7,4.92,7.28,3.22,11.54-5.62,12.53a78,78,0,0,1-18.38-.34c-11.78-1.51-22.11-4.91-33.39-8.42-.86-.22-1.17,0-1.65.7-2.62,3.65-16,21.23-16,21.23-1.12,1.51-1.57,1.95-.44,3.44,1.22,1.28,2.41,2.35,3.81,3.9l0,0c2.4,2.59,5,5.12,6.61,8.14,10.52,19.34,12.61,39.6,5.19,60.41-1.43,4-4.3,7.59-6.94,11a16.64,16.64,0,0,1-5.58,4.14c-9,4.67-17.45,1.15-20.91-8.55-3.26-9.16-3.23-18.72-3.11-28.22a334.68,334.68,0,0,1,5.51-53.66c.63-3.41,2.69-14.33,3-15.79s-.81-1.88-1.83-1.3-46.46,24-50.83,26.23c-1.34.69-2.67,1.09-2.48,2.18.29,1.74.74,3.26,1.13,4.78,1.26,5,1.24,6,1.22,16.76,0,.47,0,1,0,1.46,0,2.66,2.06,2.55,3.32,1.87h0c4-1.92,8.36-4.12,11.86-6,3.16-1.7,2.6-.89,2.4.8a232.48,232.48,0,0,0-2.77,34.28c0,10.56.74,21.06,4.55,31.1,6.07,16,18.65,25.66,34.4,26,13.59.29,25.5-4.32,35.69-13.35a66.58,66.58,0,0,0,18-26.51,100.23,100.23,0,0,0-.39-72.29c-.56-1.76.73-1.45,1.44-1.32a147.68,147.68,0,0,0,24.54,2.44,69.86,69.86,0,0,0,21.23-2.63c1-.29,1.92-.57,2.85-.93C259.79,217.26,264.77,207.53,259.56,192.05Z"/></svg>