<?xml version="1.0" encoding="UTF-8"?>
<svg xmlns="http://www.w3.org/2000/svg" xmlns:xlink="http://www.w3.org/1999/xlink" width="300px" height="83px" viewBox="0 0 301 83" version="1.1">
<defs>
<linearGradient id="linear0" gradientUnits="userSpaceOnUse" x1="37.2843" y1="34.0448" x2="18.7823" y2="55.7227" gradientTransform="matrix(1.505,0,0,1.509091,0.7525,0)">
<stop offset="0" style="stop-color:rgb(25.882353%,52.156863%,95.686275%);stop-opacity:1;"/>
<stop offset="1" style="stop-color:rgb(10.588235%,45.490196%,90.980392%);stop-opacity:1;"/>
</linearGradient>
</defs>
<g id="surface1">
<path style=" stroke:none;fill-rule:nonzero;fill:rgb(12.156863%,12.156863%,12.156863%);fill-opacity:1;" d="M 42.140625 0.753906 L 258.859375 0.753906 C 281.300781 0.753906 299.496094 19 299.496094 41.5 C 299.496094 64 281.300781 82.246094 258.859375 82.246094 L 42.140625 82.246094 C 19.699219 82.246094 1.503906 64 1.503906 41.5 C 1.503906 19 19.699219 0.753906 42.140625 0.753906 Z M 42.140625 0.753906 "/>
<path style=" stroke:none;fill-rule:nonzero;fill:rgb(20.392157%,65.882353%,32.54902%);fill-opacity:1;" d="M 86.539062 35.898438 L 32.359375 35.898438 L 32.359375 27.382812 C 32.359375 22.761719 36.332031 18.863281 41.058594 18.863281 L 77.835938 18.863281 C 82.5625 18.863281 86.539062 22.761719 86.539062 27.382812 Z M 86.539062 35.898438 "/>
<path style=" stroke:none;fill-rule:nonzero;fill:rgb(98.431373%,73.72549%,1.568627%);fill-opacity:1;" d="M 86.539062 43.761719 L 32.359375 43.761719 L 32.359375 34.710938 C 32.359375 29.792969 36.332031 25.65625 41.058594 25.65625 L 77.835938 25.65625 C 82.5625 25.65625 86.539062 29.792969 86.539062 34.710938 Z M 86.539062 43.761719 "/>
<path style=" stroke:none;fill-rule:nonzero;fill:rgb(91.764706%,26.27451%,20.784314%);fill-opacity:1;" d="M 86.539062 51.308594 L 32.359375 51.308594 L 32.359375 42.253906 C 32.359375 37.339844 36.332031 33.199219 41.058594 33.199219 L 77.835938 33.199219 C 82.5625 33.199219 86.539062 37.339844 86.539062 42.253906 Z M 86.539062 51.308594 "/>
<path style=" stroke:none;fill-rule:nonzero;fill:url(#linear0);" d="M 32.359375 38.09375 L 66.742188 45.878906 C 70.707031 46.851562 75.15625 45.878906 78.371094 43.445312 L 86.539062 37.601562 L 86.539062 55.859375 C 86.539062 60.488281 82.582031 64.136719 77.878906 64.136719 L 41.015625 64.136719 C 36.3125 64.136719 32.359375 60.488281 32.359375 55.859375 Z M 32.359375 38.09375 "/>
<path style=" stroke:none;fill-rule:nonzero;fill:rgb(100%,100%,100%);fill-opacity:1;" d="M 106.183594 32.445312 L 106.183594 18.398438 L 114.675781 18.398438 L 114.675781 20.4375 L 108.335938 20.4375 L 108.335938 24.558594 L 114.042969 24.558594 L 114.042969 26.597656 L 108.335938 26.597656 L 108.335938 32.445312 Z M 120.730469 32.757812 C 119.699219 32.757812 118.789062 32.523438 118.007812 32.050781 C 117.226562 31.585938 116.613281 30.949219 116.167969 30.152344 C 115.726562 29.351562 115.503906 28.449219 115.503906 27.441406 C 115.503906 26.449219 115.726562 25.554688 116.167969 24.753906 C 116.613281 23.945312 117.226562 23.300781 118.007812 22.832031 C 118.789062 22.359375 119.699219 22.125 120.730469 22.125 C 121.746094 22.125 122.644531 22.359375 123.425781 22.832031 C 124.210938 23.300781 124.828125 23.945312 125.269531 24.753906 C 125.707031 25.554688 125.933594 26.449219 125.933594 27.441406 C 125.933594 28.449219 125.707031 29.351562 125.269531 30.152344 C 124.828125 30.949219 124.210938 31.585938 123.425781 32.050781 C 122.644531 32.523438 121.746094 32.757812 120.730469 32.757812 Z M 120.730469 30.820312 C 121.277344 30.820312 121.789062 30.6875 122.25 30.421875 C 122.722656 30.152344 123.105469 29.761719 123.386719 29.269531 C 123.691406 28.753906 123.839844 28.148438 123.839844 27.441406 C 123.839844 26.738281 123.691406 26.132812 123.386719 25.636719 C 123.105469 25.128906 122.722656 24.742188 122.25 24.480469 C 121.789062 24.203125 121.277344 24.070312 120.730469 24.070312 C 120.183594 24.070312 119.664062 24.203125 119.183594 24.480469 C 118.710938 24.742188 118.332031 25.128906 118.03125 25.636719 C 117.742188 26.132812 117.597656 26.738281 117.597656 27.441406 C 117.597656 28.148438 117.742188 28.753906 118.03125 29.269531 C 118.332031 29.761719 118.710938 30.152344 119.183594 30.421875 C 119.664062 30.6875 120.183594 30.820312 120.730469 30.820312 Z M 118.125 33.171875 L 116.71875 32.367188 L 123.351562 21.714844 L 124.757812 22.5 Z M 128.996094 20.96875 C 128.605469 20.96875 128.265625 20.832031 127.976562 20.554688 C 127.707031 20.265625 127.566406 19.929688 127.566406 19.535156 C 127.566406 19.148438 127.707031 18.8125 127.976562 18.535156 C 128.265625 18.261719 128.605469 18.125 128.996094 18.125 C 129.390625 18.125 129.71875 18.261719 129.996094 18.535156 C 130.28125 18.8125 130.421875 19.148438 130.421875 19.535156 C 130.421875 19.929688 130.28125 20.265625 129.996094 20.554688 C 129.71875 20.832031 129.390625 20.96875 128.996094 20.96875 Z M 127.097656 36.878906 C 126.695312 36.878906 126.332031 36.832031 126.003906 36.742188 L 126.003906 34.703125 C 126.132812 34.78125 126.285156 34.839844 126.457031 34.878906 C 126.609375 34.933594 126.765625 34.957031 126.917969 34.957031 C 127.300781 34.957031 127.558594 34.839844 127.707031 34.601562 C 127.859375 34.378906 127.941406 34.054688 127.941406 33.625 L 127.941406 22.441406 L 130.054688 22.441406 L 130.054688 33.640625 C 130.054688 34.792969 129.769531 35.617188 129.210938 36.113281 C 128.648438 36.625 127.949219 36.878906 127.097656 36.878906 Z M 138.296875 29.539062 L 138.296875 24.285156 L 136.554688 24.285156 L 136.554688 22.441406 L 138.296875 22.441406 L 138.296875 19.613281 L 140.410156 19.613281 L 140.410156 22.441406 L 142.859375 22.441406 L 142.859375 24.285156 L 140.410156 24.285156 L 140.410156 29.089844 C 140.410156 29.585938 140.503906 29.96875 140.707031 30.230469 C 140.910156 30.488281 141.257812 30.617188 141.742188 30.617188 C 141.988281 30.617188 142.199219 30.589844 142.371094 30.523438 C 142.550781 30.457031 142.734375 30.363281 142.917969 30.246094 L 142.917969 32.308594 C 142.691406 32.398438 142.457031 32.46875 142.210938 32.523438 C 141.964844 32.574219 141.667969 32.605469 141.328125 32.605469 C 140.40625 32.605469 139.664062 32.332031 139.117188 31.796875 C 138.570312 31.25 138.296875 30.496094 138.296875 29.539062 Z M 146.191406 20.96875 C 145.804688 20.96875 145.460938 20.832031 145.171875 20.554688 C 144.902344 20.265625 144.761719 19.929688 144.761719 19.535156 C 144.761719 19.148438 144.902344 18.8125 145.171875 18.535156 C 145.460938 18.261719 145.804688 18.125 146.191406 18.125 C 146.585938 18.125 146.914062 18.261719 147.191406 18.535156 C 147.476562 18.8125 147.621094 19.148438 147.621094 19.535156 C 147.621094 19.929688 147.476562 20.265625 147.191406 20.554688 C 146.914062 20.832031 146.585938 20.96875 146.191406 20.96875 Z M 145.136719 32.445312 L 145.136719 22.441406 L 147.25 22.441406 L 147.25 32.445312 Z M 149.886719 32.445312 L 149.886719 18.398438 L 152.003906 18.398438 L 152.003906 32.445312 Z M 149.886719 32.445312 "/>
<path style=" stroke:none;fill-rule:nonzero;fill:rgb(100%,100%,100%);fill-opacity:1;" d="M 115.34375 63.039062 C 114.027344 63.039062 112.792969 62.796875 111.632812 62.320312 C 110.488281 61.84375 109.476562 61.171875 108.589844 60.316406 C 107.703125 59.445312 107.003906 58.429688 106.492188 57.261719 C 105.996094 56.082031 105.75 54.8125 105.75 53.441406 C 105.75 52.074219 105.996094 50.808594 106.492188 49.648438 C 107.003906 48.46875 107.695312 47.449219 108.566406 46.59375 C 109.449219 45.722656 110.476562 45.042969 111.632812 44.566406 C 112.792969 44.085938 114.027344 43.847656 115.34375 43.847656 C 116.742188 43.847656 118.03125 44.09375 119.207031 44.59375 C 120.398438 45.089844 121.398438 45.78125 122.199219 46.667969 L 120.253906 48.589844 C 119.660156 47.925781 118.941406 47.414062 118.105469 47.054688 C 117.289062 46.695312 116.367188 46.515625 115.34375 46.515625 C 114.132812 46.515625 113.015625 46.804688 111.992188 47.390625 C 110.96875 47.953125 110.140625 48.757812 109.511719 49.800781 C 108.894531 50.824219 108.589844 52.039062 108.589844 53.441406 C 108.589844 54.847656 108.90625 56.066406 109.535156 57.109375 C 110.164062 58.136719 110.992188 58.941406 112.015625 59.519531 C 113.039062 60.085938 114.15625 60.371094 115.367188 60.371094 C 116.480469 60.371094 117.484375 60.164062 118.390625 59.757812 C 119.292969 59.324219 120.019531 58.726562 120.566406 57.957031 C 121.125 57.1875 121.464844 56.265625 121.585938 55.1875 L 115.316406 55.1875 L 115.316406 52.699219 L 124.222656 52.699219 C 124.320312 53.160156 124.375 53.648438 124.375 54.164062 L 124.375 54.1875 C 124.375 55.964844 123.980469 57.523438 123.199219 58.855469 C 122.429688 60.175781 121.363281 61.199219 120 61.933594 C 118.636719 62.667969 117.085938 63.039062 115.34375 63.039062 Z M 132.609375 63.039062 C 131.265625 63.039062 130.082031 62.726562 129.054688 62.113281 C 128.03125 61.5 127.230469 60.671875 126.648438 59.625 C 126.074219 58.582031 125.777344 57.40625 125.777344 56.082031 C 125.777344 54.785156 126.074219 53.613281 126.648438 52.570312 C 127.230469 51.507812 128.03125 50.671875 129.054688 50.058594 C 130.082031 49.441406 131.265625 49.132812 132.609375 49.132812 C 133.945312 49.132812 135.121094 49.441406 136.144531 50.058594 C 137.167969 50.671875 137.964844 51.507812 138.546875 52.570312 C 139.128906 53.613281 139.417969 54.785156 139.417969 56.082031 C 139.417969 57.40625 139.128906 58.582031 138.546875 59.625 C 137.964844 60.671875 137.167969 61.5 136.144531 62.113281 C 135.121094 62.726562 133.945312 63.039062 132.609375 63.039062 Z M 132.609375 60.5 C 133.328125 60.5 133.992188 60.328125 134.609375 59.988281 C 135.222656 59.625 135.714844 59.121094 136.089844 58.472656 C 136.484375 57.804688 136.679688 57.007812 136.679688 56.082031 C 136.679688 55.164062 136.484375 54.375 136.089844 53.726562 C 135.714844 53.058594 135.222656 52.554688 134.609375 52.210938 C 133.992188 51.851562 133.328125 51.675781 132.609375 51.675781 C 131.898438 51.675781 131.222656 51.851562 130.59375 52.210938 C 129.976562 52.554688 129.476562 53.058594 129.082031 53.726562 C 128.707031 54.375 128.519531 55.164062 128.519531 56.082031 C 128.519531 57.007812 128.707031 57.804688 129.082031 58.472656 C 129.476562 59.121094 129.976562 59.625 130.59375 59.988281 C 131.222656 60.328125 131.898438 60.5 132.609375 60.5 Z M 148.101562 63.039062 C 146.753906 63.039062 145.574219 62.726562 144.542969 62.113281 C 143.523438 61.5 142.722656 60.671875 142.140625 59.625 C 141.5625 58.582031 141.269531 57.40625 141.269531 56.082031 C 141.269531 54.785156 141.5625 53.613281 142.140625 52.570312 C 142.722656 51.507812 143.523438 50.671875 144.542969 50.058594 C 145.574219 49.441406 146.753906 49.132812 148.101562 49.132812 C 149.4375 49.132812 150.613281 49.441406 151.632812 50.058594 C 152.65625 50.671875 153.464844 51.507812 154.039062 52.570312 C 154.621094 53.613281 154.910156 54.785156 154.910156 56.082031 C 154.910156 57.40625 154.621094 58.582031 154.039062 59.625 C 153.464844 60.671875 152.65625 61.5 151.632812 62.113281 C 150.613281 62.726562 149.4375 63.039062 148.101562 63.039062 Z M 148.101562 60.5 C 148.820312 60.5 149.484375 60.328125 150.101562 59.988281 C 150.710938 59.625 151.207031 59.121094 151.582031 58.472656 C 151.976562 57.804688 152.167969 57.007812 152.167969 56.082031 C 152.167969 55.164062 151.976562 54.375 151.582031 53.726562 C 151.207031 53.058594 150.710938 52.554688 150.101562 52.210938 C 149.484375 51.851562 148.820312 51.675781 148.101562 51.675781 C 147.390625 51.675781 146.714844 51.851562 146.085938 52.210938 C 145.46875 52.554688 144.96875 53.058594 144.574219 53.726562 C 144.199219 54.375 144.007812 55.164062 144.007812 56.082031 C 144.007812 57.007812 144.199219 57.804688 144.574219 58.472656 C 144.96875 59.121094 145.46875 59.625 146.085938 59.988281 C 146.714844 60.328125 147.390625 60.5 148.101562 60.5 Z M 163.339844 68.582031 C 162.191406 68.582031 161.207031 68.390625 160.371094 68.015625 C 159.554688 67.65625 158.890625 67.183594 158.378906 66.605469 C 157.867188 66.039062 157.496094 65.457031 157.277344 64.863281 L 159.835938 63.78125 C 160.105469 64.464844 160.542969 65.019531 161.140625 65.449219 C 161.753906 65.894531 162.488281 66.117188 163.339844 66.117188 C 164.53125 66.117188 165.46875 65.757812 166.15625 65.039062 C 166.847656 64.320312 167.203125 63.304688 167.203125 61.984375 L 167.203125 60.730469 L 167.050781 60.730469 C 166.636719 61.34375 166.066406 61.84375 165.332031 62.214844 C 164.621094 62.574219 163.796875 62.757812 162.882812 62.757812 C 161.769531 62.757812 160.753906 62.472656 159.835938 61.90625 C 158.914062 61.34375 158.171875 60.558594 157.609375 59.550781 C 157.042969 58.523438 156.761719 57.328125 156.761719 55.953125 C 156.761719 54.570312 157.042969 53.371094 157.609375 52.363281 C 158.171875 51.339844 158.914062 50.542969 159.835938 49.976562 C 160.753906 49.417969 161.769531 49.132812 162.882812 49.132812 C 163.796875 49.132812 164.621094 49.324219 165.332031 49.699219 C 166.066406 50.070312 166.636719 50.570312 167.050781 51.183594 L 167.203125 51.183594 L 167.203125 49.539062 L 169.835938 49.539062 L 169.835938 61.933594 C 169.835938 63.351562 169.554688 64.5625 168.996094 65.550781 C 168.449219 66.542969 167.691406 67.296875 166.714844 67.808594 C 165.742188 68.320312 164.621094 68.582031 163.339844 68.582031 Z M 163.363281 60.238281 C 164.046875 60.238281 164.679688 60.082031 165.257812 59.757812 C 165.839844 59.414062 166.308594 58.925781 166.667969 58.292969 C 167.027344 57.640625 167.203125 56.863281 167.203125 55.953125 C 167.203125 55.015625 167.027344 54.226562 166.667969 53.597656 C 166.308594 52.949219 165.839844 52.457031 165.257812 52.132812 C 164.679688 51.808594 164.046875 51.644531 163.363281 51.644531 C 162.679688 51.644531 162.039062 51.816406 161.445312 52.15625 C 160.863281 52.488281 160.394531 52.964844 160.042969 53.597656 C 159.683594 54.226562 159.5 55.015625 159.5 55.953125 C 159.5 56.878906 159.683594 57.667969 160.042969 58.316406 C 160.394531 58.949219 160.863281 59.425781 161.445312 59.757812 C 162.039062 60.082031 162.679688 60.238281 163.363281 60.238281 Z M 173.097656 62.628906 L 173.097656 44.257812 L 175.863281 44.257812 L 175.863281 62.628906 Z M 184.949219 63.039062 C 183.675781 63.039062 182.527344 62.738281 181.523438 62.136719 C 180.519531 61.542969 179.722656 60.71875 179.140625 59.679688 C 178.582031 58.636719 178.300781 57.445312 178.300781 56.113281 C 178.300781 54.863281 178.570312 53.707031 179.117188 52.648438 C 179.664062 51.585938 180.421875 50.742188 181.394531 50.105469 C 182.386719 49.457031 183.523438 49.132812 184.796875 49.132812 C 186.148438 49.132812 187.289062 49.421875 188.226562 50.007812 C 189.183594 50.585938 189.90625 51.378906 190.398438 52.394531 C 190.898438 53.402344 191.148438 54.539062 191.148438 55.800781 C 191.148438 55.988281 191.136719 56.160156 191.117188 56.3125 C 191.117188 56.472656 191.113281 56.589844 191.09375 56.671875 L 181.011719 56.671875 C 181.148438 57.976562 181.597656 58.949219 182.371094 59.597656 C 183.152344 60.25 184.039062 60.574219 185.027344 60.574219 C 185.914062 60.574219 186.648438 60.375 187.230469 59.988281 C 187.808594 59.574219 188.273438 59.074219 188.613281 58.472656 L 190.886719 59.574219 C 190.324219 60.597656 189.558594 61.4375 188.582031 62.089844 C 187.613281 62.722656 186.402344 63.039062 184.949219 63.039062 Z M 184.828125 51.492188 C 183.902344 51.492188 183.121094 51.773438 182.46875 52.339844 C 181.824219 52.90625 181.386719 53.65625 181.164062 54.597656 L 188.40625 54.597656 C 188.371094 54.152344 188.226562 53.691406 187.972656 53.214844 C 187.714844 52.734375 187.324219 52.328125 186.796875 52.003906 C 186.285156 51.664062 185.625 51.492188 184.828125 51.492188 Z M 202.394531 62.628906 L 197.476562 44.257812 L 200.601562 44.257812 L 203.515625 56.191406 L 203.820312 57.777344 L 203.972656 57.777344 L 204.363281 56.191406 L 208.042969 44.257812 L 210.859375 44.257812 L 214.390625 56.191406 L 214.773438 57.753906 L 214.925781 57.753906 L 215.234375 56.191406 L 218.148438 44.257812 L 221.246094 44.257812 L 216.414062 62.628906 L 213.445312 62.628906 L 209.9375 50.441406 L 209.53125 48.722656 L 209.378906 48.722656 L 208.941406 50.441406 L 205.28125 62.628906 Z M 226.386719 63.039062 C 225.449219 63.039062 224.609375 62.855469 223.878906 62.496094 C 223.144531 62.121094 222.574219 61.601562 222.164062 60.933594 C 221.753906 60.269531 221.550781 59.507812 221.550781 58.648438 C 221.550781 57.730469 221.789062 56.9375 222.265625 56.289062 C 222.761719 55.625 223.417969 55.117188 224.234375 54.773438 C 225.054688 54.433594 225.960938 54.261719 226.949219 54.261719 C 227.765625 54.261719 228.484375 54.339844 229.09375 54.492188 C 229.730469 54.652344 230.207031 54.8125 230.53125 54.980469 L 230.53125 54.292969 C 230.53125 53.4375 230.222656 52.746094 229.605469 52.234375 C 228.996094 51.722656 228.203125 51.46875 227.230469 51.46875 C 226.5625 51.46875 225.933594 51.621094 225.339844 51.929688 C 224.738281 52.222656 224.261719 52.625 223.902344 53.136719 L 222.011719 51.675781 C 222.574219 50.882812 223.316406 50.273438 224.234375 49.824219 C 225.175781 49.363281 226.195312 49.132812 227.308594 49.132812 C 229.199219 49.132812 230.660156 49.605469 231.683594 50.542969 C 232.703125 51.46875 233.214844 52.765625 233.214844 54.445312 L 233.214844 62.628906 L 230.53125 62.628906 L 230.53125 61.011719 L 230.375 61.011719 C 230.035156 61.542969 229.523438 62.015625 228.84375 62.421875 C 228.160156 62.832031 227.34375 63.039062 226.386719 63.039062 Z M 226.871094 60.78125 C 227.589844 60.78125 228.21875 60.609375 228.765625 60.269531 C 229.3125 59.925781 229.734375 59.480469 230.042969 58.929688 C 230.363281 58.371094 230.53125 57.765625 230.53125 57.109375 C 230.136719 56.890625 229.675781 56.707031 229.148438 56.574219 C 228.617188 56.421875 228.054688 56.34375 227.460938 56.34375 C 226.332031 56.34375 225.53125 56.574219 225.054688 57.03125 C 224.582031 57.480469 224.339844 58.027344 224.339844 58.675781 C 224.339844 59.289062 224.566406 59.796875 225.027344 60.191406 C 225.492188 60.582031 226.101562 60.78125 226.871094 60.78125 Z M 236.285156 62.628906 L 236.285156 44.257812 L 239.046875 44.257812 L 239.046875 62.628906 Z M 242.328125 62.628906 L 242.328125 44.257812 L 245.089844 44.257812 L 245.089844 62.628906 Z M 254.1875 63.039062 C 252.910156 63.039062 251.765625 62.738281 250.757812 62.136719 C 249.753906 61.542969 248.960938 60.71875 248.378906 59.679688 C 247.8125 58.636719 247.539062 57.445312 247.539062 56.113281 C 247.539062 54.863281 247.808594 53.707031 248.355469 52.648438 C 248.902344 51.585938 249.660156 50.742188 250.628906 50.105469 C 251.625 49.457031 252.75 49.132812 254.035156 49.132812 C 255.378906 49.132812 256.527344 49.421875 257.460938 50.007812 C 258.417969 50.585938 259.140625 51.378906 259.636719 52.394531 C 260.128906 53.402344 260.375 54.539062 260.375 55.800781 C 260.375 55.988281 260.371094 56.160156 260.351562 56.3125 C 260.351562 56.472656 260.347656 56.589844 260.328125 56.671875 L 250.246094 56.671875 C 250.382812 57.976562 250.835938 58.949219 251.605469 59.597656 C 252.386719 60.25 253.273438 60.574219 254.261719 60.574219 C 255.152344 60.574219 255.886719 60.375 256.460938 59.988281 C 257.042969 59.574219 257.507812 59.074219 257.84375 58.472656 L 260.125 59.574219 C 259.558594 60.597656 258.789062 61.4375 257.820312 62.089844 C 256.847656 62.722656 255.636719 63.039062 254.1875 63.039062 Z M 254.058594 51.492188 C 253.140625 51.492188 252.351562 51.773438 251.707031 52.339844 C 251.058594 52.90625 250.625 53.65625 250.398438 54.597656 L 257.644531 54.597656 C 257.609375 54.152344 257.460938 53.691406 257.207031 53.214844 C 256.949219 52.734375 256.5625 52.328125 256.027344 52.003906 C 255.515625 51.664062 254.863281 51.492188 254.058594 51.492188 Z M 263.949219 58.832031 L 263.949219 51.957031 L 261.671875 51.957031 L 261.671875 49.539062 L 263.949219 49.539062 L 263.949219 45.851562 L 266.714844 45.851562 L 266.714844 49.539062 L 269.914062 49.539062 L 269.914062 51.957031 L 266.714844 51.957031 L 266.714844 58.242188 C 266.714844 58.890625 266.84375 59.386719 267.097656 59.726562 C 267.367188 60.070312 267.820312 60.238281 268.453125 60.238281 C 268.777344 60.238281 269.046875 60.199219 269.273438 60.117188 C 269.507812 60.027344 269.746094 59.910156 269.988281 59.757812 L 269.988281 62.449219 C 269.695312 62.566406 269.390625 62.664062 269.066406 62.726562 C 268.742188 62.796875 268.359375 62.832031 267.914062 62.832031 C 266.703125 62.832031 265.738281 62.480469 265.027344 61.777344 C 264.308594 61.066406 263.949219 60.082031 263.949219 58.832031 Z M 263.949219 58.832031 "/>
<path style="fill:none;stroke-width:1;stroke-linecap:butt;stroke-linejoin:miter;stroke:rgb(45.490196%,46.666667%,45.882353%);stroke-opacity:1;stroke-miterlimit:4;" d="M 27.500415 0.499576 L 171.499585 0.499576 C 186.410818 0.499576 198.500727 12.590361 198.500727 27.5 C 198.500727 42.409639 186.410818 54.500424 171.499585 54.500424 L 27.500415 54.500424 C 12.589182 54.500424 0.499273 42.409639 0.499273 27.5 C 0.499273 12.590361 12.589182 0.499576 27.500415 0.499576 Z M 27.500415 0.499576 " transform="matrix(1.505,0,0,1.509091,0.7525,0)"/>
</g>
</svg>
