<?xml version="1.0" encoding="UTF-8"?>
<svg xmlns="http://www.w3.org/2000/svg" xmlns:xlink="http://www.w3.org/1999/xlink" width="400px" height="110px" viewBox="0 0 400 110" version="1.1">
<defs>
<linearGradient id="linear0" gradientUnits="userSpaceOnUse" x1="37.2843" y1="34.0448" x2="18.7823" y2="55.7227" gradientTransform="matrix(2,0,0,2,1,0)">
<stop offset="0" style="stop-color:rgb(25.882353%,52.156863%,95.686275%);stop-opacity:1;"/>
<stop offset="1" style="stop-color:rgb(10.588235%,45.490196%,90.980392%);stop-opacity:1;"/>
</linearGradient>
</defs>
<g id="surface1">
<path style=" stroke:none;fill-rule:nonzero;fill:rgb(12.156863%,12.156863%,12.156863%);fill-opacity:1;" d="M 56 1 L 344 1 C 373.820312 1 398 25.179688 398 55 C 398 84.820312 373.820312 109 344 109 L 56 109 C 26.179688 109 2 84.820312 2 55 C 2 25.179688 26.179688 1 56 1 Z M 56 1 "/>
<path style=" stroke:none;fill-rule:nonzero;fill:rgb(20.392157%,65.882353%,32.54902%);fill-opacity:1;" d="M 115 47.578125 L 43 47.578125 L 43 36.289062 C 43 30.164062 48.28125 25 54.5625 25 L 103.4375 25 C 109.71875 25 115 30.164062 115 36.289062 Z M 115 47.578125 "/>
<path style=" stroke:none;fill-rule:nonzero;fill:rgb(98.431373%,73.72549%,1.568627%);fill-opacity:1;" d="M 115 58 L 43 58 L 43 46 C 43 39.484375 48.28125 34 54.5625 34 L 103.4375 34 C 109.71875 34 115 39.484375 115 46 Z M 115 58 "/>
<path style=" stroke:none;fill-rule:nonzero;fill:rgb(91.764706%,26.27451%,20.784314%);fill-opacity:1;" d="M 115 68 L 43 68 L 43 56 C 43 49.484375 48.28125 44 54.5625 44 L 103.4375 44 C 109.71875 44 115 49.484375 115 56 Z M 115 68 "/>
<path style=" stroke:none;fill-rule:nonzero;fill:url(#linear0);" d="M 43 50.484375 L 88.695312 60.804688 C 93.960938 62.09375 99.875 60.804688 104.148438 57.578125 L 115 49.835938 L 115 74.03125 C 115 80.164062 109.742188 85 103.492188 85 L 54.507812 85 C 48.257812 85 43 80.164062 43 74.03125 Z M 43 50.484375 "/>
<path style=" stroke:none;fill-rule:nonzero;fill:rgb(100%,100%,100%);fill-opacity:1;" d="M 141.109375 43 L 141.109375 24.382812 L 152.390625 24.382812 L 152.390625 27.085938 L 143.96875 27.085938 L 143.96875 32.546875 L 151.554688 32.546875 L 151.554688 35.25 L 143.96875 35.25 L 143.96875 43 Z M 160.4375 43.414062 C 159.070312 43.414062 157.859375 43.101562 156.820312 42.476562 C 155.78125 41.859375 154.96875 41.015625 154.375 39.960938 C 153.789062 38.898438 153.492188 37.703125 153.492188 36.367188 C 153.492188 35.054688 153.789062 33.867188 154.375 32.804688 C 154.96875 31.734375 155.78125 30.882812 156.820312 30.257812 C 157.859375 29.632812 159.070312 29.320312 160.4375 29.320312 C 161.789062 29.320312 162.984375 29.632812 164.023438 30.257812 C 165.0625 30.882812 165.882812 31.734375 166.46875 32.804688 C 167.054688 33.867188 167.351562 35.054688 167.351562 36.367188 C 167.351562 37.703125 167.054688 38.898438 166.46875 39.960938 C 165.882812 41.015625 165.0625 41.859375 164.023438 42.476562 C 162.984375 43.101562 161.789062 43.414062 160.4375 43.414062 Z M 160.4375 40.84375 C 161.164062 40.84375 161.84375 40.671875 162.460938 40.320312 C 163.085938 39.960938 163.59375 39.445312 163.96875 38.789062 C 164.375 38.109375 164.570312 37.304688 164.570312 36.367188 C 164.570312 35.4375 164.375 34.632812 163.96875 33.976562 C 163.59375 33.304688 163.085938 32.789062 162.460938 32.445312 C 161.84375 32.078125 161.164062 31.898438 160.4375 31.898438 C 159.710938 31.898438 159.023438 32.078125 158.382812 32.445312 C 157.757812 32.789062 157.25 33.304688 156.851562 33.976562 C 156.46875 34.632812 156.273438 35.4375 156.273438 36.367188 C 156.273438 37.304688 156.46875 38.109375 156.851562 38.789062 C 157.25 39.445312 157.757812 39.960938 158.382812 40.320312 C 159.023438 40.671875 159.710938 40.84375 160.4375 40.84375 Z M 156.976562 43.960938 L 155.109375 42.898438 L 163.921875 28.78125 L 165.789062 29.820312 Z M 171.421875 27.789062 C 170.90625 27.789062 170.453125 27.609375 170.070312 27.242188 C 169.710938 26.859375 169.523438 26.414062 169.523438 25.890625 C 169.523438 25.375 169.710938 24.929688 170.070312 24.5625 C 170.453125 24.203125 170.90625 24.023438 171.421875 24.023438 C 171.945312 24.023438 172.382812 24.203125 172.75 24.5625 C 173.132812 24.929688 173.320312 25.375 173.320312 25.890625 C 173.320312 26.414062 173.132812 26.859375 172.75 27.242188 C 172.382812 27.609375 171.945312 27.789062 171.421875 27.789062 Z M 168.898438 48.875 C 168.367188 48.875 167.882812 48.8125 167.445312 48.695312 L 167.445312 45.992188 C 167.617188 46.09375 167.820312 46.171875 168.046875 46.226562 C 168.25 46.296875 168.460938 46.328125 168.664062 46.328125 C 169.171875 46.328125 169.515625 46.171875 169.710938 45.859375 C 169.914062 45.5625 170.023438 45.132812 170.023438 44.5625 L 170.023438 29.742188 L 172.828125 29.742188 L 172.828125 44.585938 C 172.828125 46.109375 172.453125 47.203125 171.710938 47.859375 C 170.960938 48.539062 170.03125 48.875 168.898438 48.875 Z M 183.78125 39.148438 L 183.78125 32.1875 L 181.46875 32.1875 L 181.46875 29.742188 L 183.78125 29.742188 L 183.78125 25.992188 L 186.59375 25.992188 L 186.59375 29.742188 L 189.84375 29.742188 L 189.84375 32.1875 L 186.59375 32.1875 L 186.59375 38.554688 C 186.59375 39.210938 186.71875 39.71875 186.984375 40.0625 C 187.257812 40.40625 187.71875 40.578125 188.359375 40.578125 C 188.6875 40.578125 188.96875 40.539062 189.195312 40.453125 C 189.4375 40.367188 189.679688 40.242188 189.921875 40.085938 L 189.921875 42.820312 C 189.625 42.9375 189.3125 43.03125 188.984375 43.101562 C 188.65625 43.171875 188.265625 43.210938 187.8125 43.210938 C 186.585938 43.210938 185.601562 42.851562 184.875 42.140625 C 184.148438 41.414062 183.78125 40.414062 183.78125 39.148438 Z M 194.273438 27.789062 C 193.757812 27.789062 193.304688 27.609375 192.921875 27.242188 C 192.5625 26.859375 192.375 26.414062 192.375 25.890625 C 192.375 25.375 192.5625 24.929688 192.921875 24.5625 C 193.304688 24.203125 193.757812 24.023438 194.273438 24.023438 C 194.796875 24.023438 195.234375 24.203125 195.601562 24.5625 C 195.984375 24.929688 196.171875 25.375 196.171875 25.890625 C 196.171875 26.414062 195.984375 26.859375 195.601562 27.242188 C 195.234375 27.609375 194.796875 27.789062 194.273438 27.789062 Z M 192.875 43 L 192.875 29.742188 L 195.679688 29.742188 L 195.679688 43 Z M 199.1875 43 L 199.1875 24.382812 L 202 24.382812 L 202 43 Z M 199.1875 43 "/>
<path style=" stroke:none;fill-rule:nonzero;fill:rgb(100%,100%,100%);fill-opacity:1;" d="M 153.28125 83.546875 C 151.53125 83.546875 149.890625 83.226562 148.351562 82.59375 C 146.828125 81.960938 145.484375 81.070312 144.304688 79.9375 C 143.125 78.78125 142.195312 77.4375 141.515625 75.890625 C 140.859375 74.328125 140.53125 72.640625 140.53125 70.828125 C 140.53125 69.015625 140.859375 67.335938 141.515625 65.796875 C 142.195312 64.234375 143.117188 62.882812 144.273438 61.75 C 145.445312 60.59375 146.8125 59.695312 148.351562 59.0625 C 149.890625 58.429688 151.53125 58.109375 153.28125 58.109375 C 155.140625 58.109375 156.851562 58.4375 158.414062 59.101562 C 160 59.757812 161.328125 60.671875 162.390625 61.851562 L 159.804688 64.398438 C 159.015625 63.515625 158.0625 62.835938 156.953125 62.359375 C 155.867188 61.882812 154.640625 61.648438 153.28125 61.648438 C 151.671875 61.648438 150.1875 62.03125 148.828125 62.804688 C 147.46875 63.554688 146.367188 64.617188 145.53125 66 C 144.710938 67.359375 144.304688 68.96875 144.304688 70.828125 C 144.304688 72.6875 144.726562 74.304688 145.5625 75.6875 C 146.398438 77.046875 147.5 78.117188 148.859375 78.882812 C 150.21875 79.632812 151.703125 80.007812 153.3125 80.007812 C 154.789062 80.007812 156.125 79.734375 157.328125 79.195312 C 158.53125 78.625 159.492188 77.828125 160.21875 76.8125 C 160.960938 75.789062 161.414062 74.570312 161.578125 73.140625 L 153.242188 73.140625 L 153.242188 69.84375 L 165.078125 69.84375 C 165.210938 70.453125 165.28125 71.101562 165.28125 71.78125 L 165.28125 71.8125 C 165.28125 74.171875 164.757812 76.234375 163.71875 78 C 162.695312 79.75 161.28125 81.109375 159.46875 82.078125 C 157.65625 83.054688 155.59375 83.546875 153.28125 83.546875 Z M 176.226562 83.546875 C 174.4375 83.546875 172.867188 83.132812 171.5 82.320312 C 170.140625 81.507812 169.078125 80.40625 168.304688 79.023438 C 167.539062 77.640625 167.148438 76.078125 167.148438 74.328125 C 167.148438 72.609375 167.539062 71.054688 168.304688 69.671875 C 169.078125 68.265625 170.140625 67.15625 171.5 66.34375 C 172.867188 65.523438 174.4375 65.117188 176.226562 65.117188 C 178 65.117188 179.5625 65.523438 180.921875 66.34375 C 182.28125 67.15625 183.34375 68.265625 184.117188 69.671875 C 184.890625 71.054688 185.273438 72.609375 185.273438 74.328125 C 185.273438 76.078125 184.890625 77.640625 184.117188 79.023438 C 183.34375 80.40625 182.28125 81.507812 180.921875 82.320312 C 179.5625 83.132812 178 83.546875 176.226562 83.546875 Z M 176.226562 80.179688 C 177.179688 80.179688 178.0625 79.953125 178.882812 79.5 C 179.695312 79.023438 180.351562 78.351562 180.851562 77.492188 C 181.375 76.609375 181.632812 75.554688 181.632812 74.328125 C 181.632812 73.109375 181.375 72.0625 180.851562 71.203125 C 180.351562 70.320312 179.695312 69.648438 178.882812 69.195312 C 178.0625 68.71875 177.179688 68.484375 176.226562 68.484375 C 175.28125 68.484375 174.382812 68.71875 173.546875 69.195312 C 172.726562 69.648438 172.0625 70.320312 171.539062 71.203125 C 171.039062 72.0625 170.789062 73.109375 170.789062 74.328125 C 170.789062 75.554688 171.039062 76.609375 171.539062 77.492188 C 172.0625 78.351562 172.726562 79.023438 173.546875 79.5 C 174.382812 79.953125 175.28125 80.179688 176.226562 80.179688 Z M 196.8125 83.546875 C 195.023438 83.546875 193.453125 83.132812 192.085938 82.320312 C 190.726562 81.507812 189.664062 80.40625 188.890625 79.023438 C 188.125 77.640625 187.734375 76.078125 187.734375 74.328125 C 187.734375 72.609375 188.125 71.054688 188.890625 69.671875 C 189.664062 68.265625 190.726562 67.15625 192.085938 66.34375 C 193.453125 65.523438 195.023438 65.117188 196.8125 65.117188 C 198.585938 65.117188 200.148438 65.523438 201.507812 66.34375 C 202.867188 67.15625 203.9375 68.265625 204.703125 69.671875 C 205.476562 71.054688 205.859375 72.609375 205.859375 74.328125 C 205.859375 76.078125 205.476562 77.640625 204.703125 79.023438 C 203.9375 80.40625 202.867188 81.507812 201.507812 82.320312 C 200.148438 83.132812 198.585938 83.546875 196.8125 83.546875 Z M 196.8125 80.179688 C 197.765625 80.179688 198.648438 79.953125 199.46875 79.5 C 200.28125 79.023438 200.9375 78.351562 201.4375 77.492188 C 201.960938 76.609375 202.21875 75.554688 202.21875 74.328125 C 202.21875 73.109375 201.960938 72.0625 201.4375 71.203125 C 200.9375 70.320312 200.28125 69.648438 199.46875 69.195312 C 198.648438 68.71875 197.765625 68.484375 196.8125 68.484375 C 195.867188 68.484375 194.96875 68.71875 194.132812 69.195312 C 193.3125 69.648438 192.648438 70.320312 192.125 71.203125 C 191.625 72.0625 191.375 73.109375 191.375 74.328125 C 191.375 75.554688 191.625 76.609375 192.125 77.492188 C 192.648438 78.351562 193.3125 79.023438 194.132812 79.5 C 194.96875 79.953125 195.867188 80.179688 196.8125 80.179688 Z M 217.0625 90.890625 C 215.539062 90.890625 214.226562 90.640625 213.117188 90.140625 C 212.03125 89.664062 211.148438 89.039062 210.46875 88.273438 C 209.789062 87.523438 209.296875 86.75 209.007812 85.960938 L 212.40625 84.53125 C 212.765625 85.4375 213.34375 86.171875 214.140625 86.742188 C 214.953125 87.328125 215.929688 87.625 217.0625 87.625 C 218.648438 87.625 219.890625 87.148438 220.804688 86.195312 C 221.726562 85.242188 222.195312 83.898438 222.195312 82.148438 L 222.195312 80.484375 L 221.992188 80.484375 C 221.445312 81.296875 220.6875 81.960938 219.710938 82.453125 C 218.765625 82.929688 217.671875 83.171875 216.453125 83.171875 C 214.976562 83.171875 213.625 82.796875 212.40625 82.046875 C 211.179688 81.296875 210.195312 80.257812 209.445312 78.921875 C 208.695312 77.5625 208.320312 75.976562 208.320312 74.15625 C 208.320312 72.320312 208.695312 70.734375 209.445312 69.398438 C 210.195312 68.039062 211.179688 66.984375 212.40625 66.234375 C 213.625 65.492188 214.976562 65.117188 216.453125 65.117188 C 217.671875 65.117188 218.765625 65.367188 219.710938 65.867188 C 220.6875 66.359375 221.445312 67.023438 221.992188 67.835938 L 222.195312 67.835938 L 222.195312 65.65625 L 225.695312 65.65625 L 225.695312 82.078125 C 225.695312 83.960938 225.320312 85.5625 224.578125 86.875 C 223.851562 88.1875 222.84375 89.1875 221.546875 89.867188 C 220.257812 90.546875 218.765625 90.890625 217.0625 90.890625 Z M 217.09375 79.835938 C 218 79.835938 218.84375 79.625 219.609375 79.195312 C 220.382812 78.742188 221.007812 78.09375 221.484375 77.257812 C 221.960938 76.390625 222.195312 75.359375 222.195312 74.15625 C 222.195312 72.914062 221.960938 71.867188 221.484375 71.03125 C 221.007812 70.171875 220.382812 69.523438 219.609375 69.09375 C 218.84375 68.664062 218 68.445312 217.09375 68.445312 C 216.1875 68.445312 215.335938 68.671875 214.546875 69.125 C 213.773438 69.5625 213.148438 70.195312 212.679688 71.03125 C 212.203125 71.867188 211.960938 72.914062 211.960938 74.15625 C 211.960938 75.382812 212.203125 76.429688 212.679688 77.289062 C 213.148438 78.125 213.773438 78.757812 214.546875 79.195312 C 215.335938 79.625 216.1875 79.835938 217.09375 79.835938 Z M 230.03125 83 L 230.03125 58.65625 L 233.703125 58.65625 L 233.703125 83 Z M 245.78125 83.546875 C 244.085938 83.546875 242.5625 83.148438 241.226562 82.351562 C 239.890625 81.5625 238.835938 80.46875 238.0625 79.09375 C 237.320312 77.710938 236.945312 76.132812 236.945312 74.367188 C 236.945312 72.710938 237.304688 71.179688 238.03125 69.773438 C 238.757812 68.367188 239.765625 67.25 241.054688 66.40625 C 242.375 65.546875 243.882812 65.117188 245.578125 65.117188 C 247.375 65.117188 248.890625 65.5 250.132812 66.273438 C 251.40625 67.039062 252.367188 68.09375 253.023438 69.4375 C 253.6875 70.773438 254.015625 72.28125 254.015625 73.953125 C 254.015625 74.203125 254 74.429688 253.976562 74.632812 C 253.976562 74.84375 253.96875 75 253.945312 75.109375 L 240.546875 75.109375 C 240.726562 76.835938 241.328125 78.125 242.351562 78.984375 C 243.390625 79.851562 244.570312 80.28125 245.882812 80.28125 C 247.0625 80.28125 248.039062 80.015625 248.8125 79.5 C 249.578125 78.953125 250.195312 78.289062 250.648438 77.492188 L 253.671875 78.953125 C 252.921875 80.3125 251.90625 81.421875 250.609375 82.289062 C 249.320312 83.125 247.710938 83.546875 245.78125 83.546875 Z M 245.617188 68.242188 C 244.390625 68.242188 243.351562 68.617188 242.484375 69.367188 C 241.625 70.117188 241.046875 71.109375 240.75 72.359375 L 250.375 72.359375 C 250.328125 71.765625 250.132812 71.15625 249.796875 70.523438 C 249.453125 69.890625 248.9375 69.351562 248.234375 68.921875 C 247.554688 68.46875 246.679688 68.242188 245.617188 68.242188 Z M 268.960938 83 L 262.429688 58.65625 L 266.578125 58.65625 L 270.453125 74.46875 L 270.859375 76.570312 L 271.0625 76.570312 L 271.578125 74.46875 L 276.46875 58.65625 L 280.210938 58.65625 L 284.90625 74.46875 L 285.414062 76.539062 L 285.617188 76.539062 L 286.023438 74.46875 L 289.898438 58.65625 L 294.015625 58.65625 L 287.59375 83 L 283.648438 83 L 278.984375 66.851562 L 278.445312 64.570312 L 278.242188 64.570312 L 277.664062 66.851562 L 272.796875 83 Z M 300.84375 83.546875 C 299.601562 83.546875 298.484375 83.304688 297.515625 82.828125 C 296.539062 82.328125 295.78125 81.640625 295.234375 80.757812 C 294.6875 79.875 294.421875 78.867188 294.421875 77.726562 C 294.421875 76.507812 294.734375 75.460938 295.367188 74.601562 C 296.03125 73.71875 296.898438 73.046875 297.984375 72.59375 C 299.078125 72.140625 300.28125 71.914062 301.59375 71.914062 C 302.679688 71.914062 303.632812 72.015625 304.445312 72.21875 C 305.289062 72.429688 305.921875 72.640625 306.351562 72.867188 L 306.351562 71.953125 C 306.351562 70.820312 305.945312 69.90625 305.125 69.226562 C 304.3125 68.546875 303.257812 68.210938 301.96875 68.210938 C 301.078125 68.210938 300.242188 68.414062 299.453125 68.820312 C 298.65625 69.210938 298.023438 69.742188 297.546875 70.421875 L 295.03125 68.484375 C 295.78125 67.4375 296.765625 66.625 297.984375 66.03125 C 299.234375 65.421875 300.59375 65.117188 302.070312 65.117188 C 304.585938 65.117188 306.523438 65.742188 307.882812 66.984375 C 309.242188 68.210938 309.921875 69.929688 309.921875 72.15625 L 309.921875 83 L 306.351562 83 L 306.351562 80.859375 L 306.148438 80.859375 C 305.695312 81.5625 305.015625 82.1875 304.109375 82.726562 C 303.203125 83.273438 302.117188 83.546875 300.84375 83.546875 Z M 301.492188 80.554688 C 302.445312 80.554688 303.28125 80.328125 304.007812 79.875 C 304.734375 79.421875 305.296875 78.828125 305.703125 78.101562 C 306.132812 77.359375 306.351562 76.554688 306.351562 75.6875 C 305.828125 75.398438 305.21875 75.15625 304.515625 74.976562 C 303.8125 74.773438 303.0625 74.671875 302.273438 74.671875 C 300.773438 74.671875 299.710938 74.976562 299.078125 75.585938 C 298.445312 76.179688 298.125 76.90625 298.125 77.765625 C 298.125 78.578125 298.429688 79.25 299.039062 79.773438 C 299.65625 80.289062 300.46875 80.554688 301.492188 80.554688 Z M 314 83 L 314 58.65625 L 317.671875 58.65625 L 317.671875 83 Z M 322.03125 83 L 322.03125 58.65625 L 325.703125 58.65625 L 325.703125 83 Z M 337.789062 83.546875 C 336.09375 83.546875 334.570312 83.148438 333.234375 82.351562 C 331.898438 81.5625 330.84375 80.46875 330.070312 79.09375 C 329.320312 77.710938 328.953125 76.132812 328.953125 74.367188 C 328.953125 72.710938 329.3125 71.179688 330.039062 69.773438 C 330.765625 68.367188 331.773438 67.25 333.0625 66.40625 C 334.382812 65.546875 335.882812 65.117188 337.585938 65.117188 C 339.375 65.117188 340.898438 65.5 342.140625 66.273438 C 343.414062 67.039062 344.375 68.09375 345.03125 69.4375 C 345.6875 70.773438 346.015625 72.28125 346.015625 73.953125 C 346.015625 74.203125 346.007812 74.429688 345.984375 74.632812 C 345.984375 74.84375 345.976562 75 345.953125 75.109375 L 332.554688 75.109375 C 332.734375 76.835938 333.335938 78.125 334.359375 78.984375 C 335.398438 79.851562 336.578125 80.28125 337.890625 80.28125 C 339.070312 80.28125 340.046875 80.015625 340.8125 79.5 C 341.585938 78.953125 342.203125 78.289062 342.648438 77.492188 L 345.679688 78.953125 C 344.929688 80.3125 343.90625 81.421875 342.617188 82.289062 C 341.328125 83.125 339.71875 83.546875 337.789062 83.546875 Z M 337.617188 68.242188 C 336.398438 68.242188 335.351562 68.617188 334.492188 69.367188 C 333.632812 70.117188 333.054688 71.109375 332.757812 72.359375 L 342.382812 72.359375 C 342.335938 71.765625 342.140625 71.15625 341.804688 70.523438 C 341.460938 69.890625 340.945312 69.351562 340.234375 68.921875 C 339.554688 68.46875 338.6875 68.242188 337.617188 68.242188 Z M 350.765625 77.96875 L 350.765625 68.859375 L 347.734375 68.859375 L 347.734375 65.65625 L 350.765625 65.65625 L 350.765625 60.765625 L 354.4375 60.765625 L 354.4375 65.65625 L 358.6875 65.65625 L 358.6875 68.859375 L 354.4375 68.859375 L 354.4375 77.1875 C 354.4375 78.046875 354.609375 78.703125 354.945312 79.15625 C 355.304688 79.609375 355.90625 79.835938 356.75 79.835938 C 357.179688 79.835938 357.539062 79.78125 357.835938 79.671875 C 358.148438 79.554688 358.46875 79.398438 358.789062 79.195312 L 358.789062 82.765625 C 358.398438 82.921875 357.992188 83.046875 357.5625 83.132812 C 357.132812 83.226562 356.625 83.273438 356.03125 83.273438 C 354.421875 83.273438 353.140625 82.804688 352.195312 81.875 C 351.242188 80.929688 350.765625 79.625 350.765625 77.96875 Z M 350.765625 77.96875 "/>
<path style="fill:none;stroke-width:1;stroke-linecap:butt;stroke-linejoin:miter;stroke:rgb(45.490196%,46.666667%,45.882353%);stroke-opacity:1;stroke-miterlimit:4;" d="M 27.5 0.5 L 171.5 0.5 C 186.410156 0.5 198.5 12.589844 198.5 27.5 C 198.5 42.410156 186.410156 54.5 171.5 54.5 L 27.5 54.5 C 12.589844 54.5 0.5 42.410156 0.5 27.5 C 0.5 12.589844 12.589844 0.5 27.5 0.5 Z M 27.5 0.5 " transform="matrix(2,0,0,2,1,0)"/>
</g>
</svg>
