<?xml version="1.0" encoding="UTF-8"?>
<svg xmlns="http://www.w3.org/2000/svg" xmlns:xlink="http://www.w3.org/1999/xlink" width="200px" height="55px" viewBox="0 0 199 55" version="1.1">
<defs>
<linearGradient id="linear0" gradientUnits="userSpaceOnUse" x1="37.2843" y1="34.0448" x2="18.7823" y2="55.7227" >
<stop offset="0" style="stop-color:rgb(25.882353%,52.156863%,95.686275%);stop-opacity:1;"/>
<stop offset="1" style="stop-color:rgb(10.588235%,45.490196%,90.980392%);stop-opacity:1;"/>
</linearGradient>
</defs>
<g id="surface1">
<path style=" stroke:none;fill-rule:nonzero;fill:rgb(12.156863%,12.156863%,12.156863%);fill-opacity:1;" d="M 27.5 0.5 L 171.5 0.5 C 186.410156 0.5 198.5 12.589844 198.5 27.5 C 198.5 42.410156 186.410156 54.5 171.5 54.5 L 27.5 54.5 C 12.589844 54.5 0.5 42.410156 0.5 27.5 C 0.5 12.589844 12.589844 0.5 27.5 0.5 Z M 27.5 0.5 "/>
<path style=" stroke:none;fill-rule:nonzero;fill:rgb(20.392157%,65.882353%,32.54902%);fill-opacity:1;" d="M 57 23.789062 L 21 23.789062 L 21 18.144531 C 21 15.082031 23.640625 12.5 26.78125 12.5 L 51.21875 12.5 C 54.359375 12.5 57 15.082031 57 18.144531 Z M 57 23.789062 "/>
<path style=" stroke:none;fill-rule:nonzero;fill:rgb(98.431373%,73.72549%,1.568627%);fill-opacity:1;" d="M 57 29 L 21 29 L 21 23 C 21 19.742188 23.640625 17 26.78125 17 L 51.21875 17 C 54.359375 17 57 19.742188 57 23 Z M 57 29 "/>
<path style=" stroke:none;fill-rule:nonzero;fill:rgb(91.764706%,26.27451%,20.784314%);fill-opacity:1;" d="M 57 34 L 21 34 L 21 28 C 21 24.742188 23.640625 22 26.78125 22 L 51.21875 22 C 54.359375 22 57 24.742188 57 28 Z M 57 34 "/>
<path style=" stroke:none;fill-rule:nonzero;fill:url(#linear0);" d="M 21 25.242188 L 43.847656 30.402344 C 46.480469 31.046875 49.4375 30.402344 51.574219 28.789062 L 57 24.917969 L 57 37.015625 C 57 40.082031 54.371094 42.5 51.246094 42.5 L 26.753906 42.5 C 23.628906 42.5 21 40.082031 21 37.015625 Z M 21 25.242188 "/>
<path style=" stroke:none;fill-rule:nonzero;fill:rgb(100%,100%,100%);fill-opacity:1;" d="M 70.054688 21.5 L 70.054688 12.191406 L 75.695312 12.191406 L 75.695312 13.542969 L 71.484375 13.542969 L 71.484375 16.273438 L 75.277344 16.273438 L 75.277344 17.625 L 71.484375 17.625 L 71.484375 21.5 Z M 79.71875 21.707031 C 79.035156 21.707031 78.429688 21.550781 77.910156 21.238281 C 77.390625 20.929688 76.984375 20.507812 76.6875 19.980469 C 76.394531 19.449219 76.246094 18.851562 76.246094 18.183594 C 76.246094 17.527344 76.394531 16.933594 76.6875 16.402344 C 76.984375 15.867188 77.390625 15.441406 77.910156 15.128906 C 78.429688 14.816406 79.035156 14.660156 79.71875 14.660156 C 80.394531 14.660156 80.992188 14.816406 81.511719 15.128906 C 82.03125 15.441406 82.441406 15.867188 82.734375 16.402344 C 83.027344 16.933594 83.175781 17.527344 83.175781 18.183594 C 83.175781 18.851562 83.027344 19.449219 82.734375 19.980469 C 82.441406 20.507812 82.03125 20.929688 81.511719 21.238281 C 80.992188 21.550781 80.394531 21.707031 79.71875 21.707031 Z M 79.71875 20.421875 C 80.082031 20.421875 80.421875 20.335938 80.730469 20.160156 C 81.042969 19.980469 81.296875 19.722656 81.484375 19.394531 C 81.6875 19.054688 81.785156 18.652344 81.785156 18.183594 C 81.785156 17.71875 81.6875 17.316406 81.484375 16.988281 C 81.296875 16.652344 81.042969 16.394531 80.730469 16.222656 C 80.421875 16.039062 80.082031 15.949219 79.71875 15.949219 C 79.355469 15.949219 79.011719 16.039062 78.691406 16.222656 C 78.378906 16.394531 78.125 16.652344 77.925781 16.988281 C 77.734375 17.316406 77.636719 17.71875 77.636719 18.183594 C 77.636719 18.652344 77.734375 19.054688 77.925781 19.394531 C 78.125 19.722656 78.378906 19.980469 78.691406 20.160156 C 79.011719 20.335938 79.355469 20.421875 79.71875 20.421875 Z M 77.988281 21.980469 L 77.054688 21.449219 L 81.460938 14.390625 L 82.394531 14.910156 Z M 85.210938 13.894531 C 84.953125 13.894531 84.726562 13.804688 84.535156 13.621094 C 84.355469 13.429688 84.261719 13.207031 84.261719 12.945312 C 84.261719 12.6875 84.355469 12.464844 84.535156 12.28125 C 84.726562 12.101562 84.953125 12.011719 85.210938 12.011719 C 85.472656 12.011719 85.691406 12.101562 85.875 12.28125 C 86.066406 12.464844 86.160156 12.6875 86.160156 12.945312 C 86.160156 13.207031 86.066406 13.429688 85.875 13.621094 C 85.691406 13.804688 85.472656 13.894531 85.210938 13.894531 Z M 83.949219 24.4375 C 83.683594 24.4375 83.441406 24.40625 83.222656 24.347656 L 83.222656 22.996094 C 83.308594 23.046875 83.410156 23.085938 83.523438 23.113281 C 83.625 23.148438 83.730469 23.164062 83.832031 23.164062 C 84.085938 23.164062 84.257812 23.085938 84.355469 22.929688 C 84.457031 22.78125 84.511719 22.566406 84.511719 22.28125 L 84.511719 14.871094 L 85.914062 14.871094 L 85.914062 22.292969 C 85.914062 23.054688 85.726562 23.601562 85.355469 23.929688 C 84.980469 24.269531 84.515625 24.4375 83.949219 24.4375 Z M 91.390625 19.574219 L 91.390625 16.09375 L 90.234375 16.09375 L 90.234375 14.871094 L 91.390625 14.871094 L 91.390625 12.996094 L 92.796875 12.996094 L 92.796875 14.871094 L 94.421875 14.871094 L 94.421875 16.09375 L 92.796875 16.09375 L 92.796875 19.277344 C 92.796875 19.605469 92.859375 19.859375 92.992188 20.03125 C 93.128906 20.203125 93.359375 20.289062 93.679688 20.289062 C 93.84375 20.289062 93.984375 20.269531 94.097656 20.226562 C 94.21875 20.183594 94.339844 20.121094 94.460938 20.042969 L 94.460938 21.410156 C 94.3125 21.46875 94.15625 21.515625 93.992188 21.550781 C 93.828125 21.585938 93.632812 21.605469 93.40625 21.605469 C 92.792969 21.605469 92.300781 21.425781 91.9375 21.070312 C 91.574219 20.707031 91.390625 20.207031 91.390625 19.574219 Z M 96.636719 13.894531 C 96.378906 13.894531 96.152344 13.804688 95.960938 13.621094 C 95.78125 13.429688 95.6875 13.207031 95.6875 12.945312 C 95.6875 12.6875 95.78125 12.464844 95.960938 12.28125 C 96.152344 12.101562 96.378906 12.011719 96.636719 12.011719 C 96.898438 12.011719 97.117188 12.101562 97.300781 12.28125 C 97.492188 12.464844 97.585938 12.6875 97.585938 12.945312 C 97.585938 13.207031 97.492188 13.429688 97.300781 13.621094 C 97.117188 13.804688 96.898438 13.894531 96.636719 13.894531 Z M 95.9375 21.5 L 95.9375 14.871094 L 97.339844 14.871094 L 97.339844 21.5 Z M 99.09375 21.5 L 99.09375 12.191406 L 100.5 12.191406 L 100.5 21.5 Z M 99.09375 21.5 "/>
<path style=" stroke:none;fill-rule:nonzero;fill:rgb(100%,100%,100%);fill-opacity:1;" d="M 76.140625 41.773438 C 75.265625 41.773438 74.445312 41.613281 73.675781 41.296875 C 72.914062 40.980469 72.242188 40.535156 71.652344 39.96875 C 71.0625 39.390625 70.597656 38.71875 70.257812 37.945312 C 69.929688 37.164062 69.765625 36.320312 69.765625 35.414062 C 69.765625 34.507812 69.929688 33.667969 70.257812 32.898438 C 70.597656 32.117188 71.058594 31.441406 71.636719 30.875 C 72.222656 30.296875 72.90625 29.847656 73.675781 29.53125 C 74.445312 29.214844 75.265625 29.054688 76.140625 29.054688 C 77.070312 29.054688 77.925781 29.21875 78.707031 29.550781 C 79.5 29.878906 80.164062 30.335938 80.695312 30.925781 L 79.402344 32.199219 C 79.007812 31.757812 78.53125 31.417969 77.976562 31.179688 C 77.433594 30.941406 76.820312 30.824219 76.140625 30.824219 C 75.335938 30.824219 74.59375 31.015625 73.914062 31.402344 C 73.234375 31.777344 72.683594 32.308594 72.265625 33 C 71.855469 33.679688 71.652344 34.484375 71.652344 35.414062 C 71.652344 36.34375 71.863281 37.152344 72.28125 37.84375 C 72.699219 38.523438 73.25 39.058594 73.929688 39.441406 C 74.609375 39.816406 75.351562 40.003906 76.15625 40.003906 C 76.894531 40.003906 77.5625 39.867188 78.164062 39.597656 C 78.765625 39.3125 79.246094 38.914062 79.609375 38.40625 C 79.980469 37.894531 80.207031 37.285156 80.289062 36.570312 L 76.121094 36.570312 L 76.121094 34.921875 L 82.039062 34.921875 C 82.105469 35.226562 82.140625 35.550781 82.140625 35.890625 L 82.140625 35.90625 C 82.140625 37.085938 81.878906 38.117188 81.359375 39 C 80.847656 39.875 80.140625 40.554688 79.234375 41.039062 C 78.328125 41.527344 77.296875 41.773438 76.140625 41.773438 Z M 87.613281 41.773438 C 86.71875 41.773438 85.933594 41.566406 85.25 41.160156 C 84.570312 40.753906 84.039062 40.203125 83.652344 39.511719 C 83.269531 38.820312 83.074219 38.039062 83.074219 37.164062 C 83.074219 36.304688 83.269531 35.527344 83.652344 34.835938 C 84.039062 34.132812 84.570312 33.578125 85.25 33.171875 C 85.933594 32.761719 86.71875 32.558594 87.613281 32.558594 C 88.5 32.558594 89.28125 32.761719 89.960938 33.171875 C 90.640625 33.578125 91.171875 34.132812 91.558594 34.835938 C 91.945312 35.527344 92.136719 36.304688 92.136719 37.164062 C 92.136719 38.039062 91.945312 38.820312 91.558594 39.511719 C 91.171875 40.203125 90.640625 40.753906 89.960938 41.160156 C 89.28125 41.566406 88.5 41.773438 87.613281 41.773438 Z M 87.613281 40.089844 C 88.089844 40.089844 88.53125 39.976562 88.941406 39.75 C 89.347656 39.511719 89.675781 39.175781 89.925781 38.746094 C 90.1875 38.304688 90.316406 37.777344 90.316406 37.164062 C 90.316406 36.554688 90.1875 36.03125 89.925781 35.601562 C 89.675781 35.160156 89.347656 34.824219 88.941406 34.597656 C 88.53125 34.359375 88.089844 34.242188 87.613281 34.242188 C 87.140625 34.242188 86.691406 34.359375 86.273438 34.597656 C 85.863281 34.824219 85.53125 35.160156 85.269531 35.601562 C 85.019531 36.03125 84.894531 36.554688 84.894531 37.164062 C 84.894531 37.777344 85.019531 38.304688 85.269531 38.746094 C 85.53125 39.175781 85.863281 39.511719 86.273438 39.75 C 86.691406 39.976562 87.140625 40.089844 87.613281 40.089844 Z M 97.90625 41.773438 C 97.011719 41.773438 96.226562 41.566406 95.542969 41.160156 C 94.863281 40.753906 94.332031 40.203125 93.945312 39.511719 C 93.5625 38.820312 93.367188 38.039062 93.367188 37.164062 C 93.367188 36.304688 93.5625 35.527344 93.945312 34.835938 C 94.332031 34.132812 94.863281 33.578125 95.542969 33.171875 C 96.226562 32.761719 97.011719 32.558594 97.90625 32.558594 C 98.792969 32.558594 99.574219 32.761719 100.253906 33.171875 C 100.933594 33.578125 101.46875 34.132812 101.851562 34.835938 C 102.238281 35.527344 102.429688 36.304688 102.429688 37.164062 C 102.429688 38.039062 102.238281 38.820312 101.851562 39.511719 C 101.46875 40.203125 100.933594 40.753906 100.253906 41.160156 C 99.574219 41.566406 98.792969 41.773438 97.90625 41.773438 Z M 97.90625 40.089844 C 98.382812 40.089844 98.824219 39.976562 99.234375 39.75 C 99.640625 39.511719 99.96875 39.175781 100.21875 38.746094 C 100.480469 38.304688 100.609375 37.777344 100.609375 37.164062 C 100.609375 36.554688 100.480469 36.03125 100.21875 35.601562 C 99.96875 35.160156 99.640625 34.824219 99.234375 34.597656 C 98.824219 34.359375 98.382812 34.242188 97.90625 34.242188 C 97.433594 34.242188 96.984375 34.359375 96.566406 34.597656 C 96.15625 34.824219 95.824219 35.160156 95.5625 35.601562 C 95.3125 36.03125 95.1875 36.554688 95.1875 37.164062 C 95.1875 37.777344 95.3125 38.304688 95.5625 38.746094 C 95.824219 39.175781 96.15625 39.511719 96.566406 39.75 C 96.984375 39.976562 97.433594 40.089844 97.90625 40.089844 Z M 108.03125 45.445312 C 107.269531 45.445312 106.613281 45.320312 106.058594 45.070312 C 105.515625 44.832031 105.074219 44.519531 104.734375 44.136719 C 104.394531 43.761719 104.148438 43.375 104.003906 42.980469 L 105.703125 42.265625 C 105.882812 42.71875 106.171875 43.085938 106.570312 43.371094 C 106.976562 43.664062 107.464844 43.8125 108.03125 43.8125 C 108.824219 43.8125 109.445312 43.574219 109.902344 43.097656 C 110.363281 42.621094 110.597656 41.949219 110.597656 41.074219 L 110.597656 40.242188 L 110.496094 40.242188 C 110.222656 40.648438 109.84375 40.980469 109.355469 41.226562 C 108.882812 41.464844 108.335938 41.585938 107.726562 41.585938 C 106.988281 41.585938 106.3125 41.398438 105.703125 41.023438 C 105.089844 40.648438 104.597656 40.128906 104.222656 39.460938 C 103.847656 38.78125 103.660156 37.988281 103.660156 37.078125 C 103.660156 36.160156 103.847656 35.367188 104.222656 34.699219 C 104.597656 34.019531 105.089844 33.492188 105.703125 33.117188 C 106.3125 32.746094 106.988281 32.558594 107.726562 32.558594 C 108.335938 32.558594 108.882812 32.683594 109.355469 32.933594 C 109.84375 33.179688 110.222656 33.511719 110.496094 33.917969 L 110.597656 33.917969 L 110.597656 32.828125 L 112.347656 32.828125 L 112.347656 41.039062 C 112.347656 41.980469 112.160156 42.78125 111.789062 43.4375 C 111.425781 44.09375 110.921875 44.59375 110.273438 44.933594 C 109.628906 45.273438 108.882812 45.445312 108.03125 45.445312 Z M 108.046875 39.917969 C 108.5 39.917969 108.921875 39.8125 109.304688 39.597656 C 109.691406 39.371094 110.003906 39.046875 110.242188 38.628906 C 110.480469 38.195312 110.597656 37.679688 110.597656 37.078125 C 110.597656 36.457031 110.480469 35.933594 110.242188 35.515625 C 110.003906 35.085938 109.691406 34.761719 109.304688 34.546875 C 108.921875 34.332031 108.5 34.222656 108.046875 34.222656 C 107.59375 34.222656 107.167969 34.335938 106.773438 34.5625 C 106.386719 34.78125 106.074219 35.097656 105.839844 35.515625 C 105.601562 35.933594 105.480469 36.457031 105.480469 37.078125 C 105.480469 37.691406 105.601562 38.214844 105.839844 38.644531 C 106.074219 39.0625 106.386719 39.378906 106.773438 39.597656 C 107.167969 39.8125 107.59375 39.917969 108.046875 39.917969 Z M 114.515625 41.5 L 114.515625 29.328125 L 116.351562 29.328125 L 116.351562 41.5 Z M 122.390625 41.773438 C 121.542969 41.773438 120.78125 41.574219 120.113281 41.175781 C 119.445312 40.78125 118.917969 40.234375 118.53125 39.546875 C 118.160156 38.855469 117.972656 38.066406 117.972656 37.183594 C 117.972656 36.355469 118.152344 35.589844 118.515625 34.886719 C 118.878906 34.183594 119.382812 33.625 120.027344 33.203125 C 120.6875 32.773438 121.441406 32.558594 122.289062 32.558594 C 123.1875 32.558594 123.945312 32.75 124.566406 33.136719 C 125.203125 33.519531 125.683594 34.046875 126.011719 34.71875 C 126.34375 35.386719 126.507812 36.140625 126.507812 36.976562 C 126.507812 37.101562 126.5 37.214844 126.488281 37.316406 C 126.488281 37.421875 126.484375 37.5 126.472656 37.554688 L 119.773438 37.554688 C 119.863281 38.417969 120.164062 39.0625 120.675781 39.492188 C 121.195312 39.925781 121.785156 40.140625 122.441406 40.140625 C 123.03125 40.140625 123.519531 40.007812 123.90625 39.75 C 124.289062 39.476562 124.597656 39.144531 124.824219 38.746094 L 126.335938 39.476562 C 125.960938 40.15625 125.453125 40.710938 124.804688 41.144531 C 124.160156 41.5625 123.355469 41.773438 122.390625 41.773438 Z M 122.308594 34.121094 C 121.695312 34.121094 121.175781 34.308594 120.742188 34.683594 C 120.3125 35.058594 120.023438 35.554688 119.875 36.179688 L 124.6875 36.179688 C 124.664062 35.882812 124.566406 35.578125 124.398438 35.261719 C 124.226562 34.945312 123.96875 34.675781 123.617188 34.460938 C 123.277344 34.234375 122.839844 34.121094 122.308594 34.121094 Z M 133.980469 41.5 L 130.714844 29.328125 L 132.789062 29.328125 L 134.726562 37.234375 L 134.929688 38.285156 L 135.03125 38.285156 L 135.289062 37.234375 L 137.734375 29.328125 L 139.605469 29.328125 L 141.953125 37.234375 L 142.207031 38.269531 L 142.308594 38.269531 L 142.511719 37.234375 L 144.449219 29.328125 L 146.507812 29.328125 L 143.296875 41.5 L 141.324219 41.5 L 138.992188 33.425781 L 138.722656 32.285156 L 138.621094 32.285156 L 138.332031 33.425781 L 135.898438 41.5 Z M 149.921875 41.773438 C 149.300781 41.773438 148.742188 41.652344 148.257812 41.414062 C 147.769531 41.164062 147.390625 40.820312 147.117188 40.378906 C 146.84375 39.9375 146.710938 39.433594 146.710938 38.863281 C 146.710938 38.253906 146.867188 37.730469 147.183594 37.300781 C 147.515625 36.859375 147.949219 36.523438 148.492188 36.296875 C 149.039062 36.070312 149.640625 35.957031 150.296875 35.957031 C 150.839844 35.957031 151.316406 36.007812 151.722656 36.109375 C 152.144531 36.214844 152.460938 36.320312 152.675781 36.433594 L 152.675781 35.976562 C 152.675781 35.410156 152.472656 34.953125 152.0625 34.613281 C 151.65625 34.273438 151.128906 34.105469 150.484375 34.105469 C 150.039062 34.105469 149.621094 34.207031 149.226562 34.410156 C 148.828125 34.605469 148.511719 34.871094 148.273438 35.210938 L 147.015625 34.242188 C 147.390625 33.71875 147.882812 33.3125 148.492188 33.015625 C 149.117188 32.710938 149.796875 32.558594 150.535156 32.558594 C 151.792969 32.558594 152.761719 32.871094 153.441406 33.492188 C 154.121094 34.105469 154.460938 34.964844 154.460938 36.078125 L 154.460938 41.5 L 152.675781 41.5 L 152.675781 40.429688 L 152.574219 40.429688 C 152.347656 40.78125 152.007812 41.09375 151.554688 41.363281 C 151.101562 41.636719 150.558594 41.773438 149.921875 41.773438 Z M 150.246094 40.277344 C 150.722656 40.277344 151.140625 40.164062 151.503906 39.9375 C 151.867188 39.710938 152.148438 39.414062 152.351562 39.050781 C 152.566406 38.679688 152.675781 38.277344 152.675781 37.84375 C 152.414062 37.699219 152.109375 37.578125 151.757812 37.488281 C 151.40625 37.386719 151.03125 37.335938 150.636719 37.335938 C 149.886719 37.335938 149.355469 37.488281 149.039062 37.792969 C 148.722656 38.089844 148.5625 38.453125 148.5625 38.882812 C 148.5625 39.289062 148.714844 39.625 149.019531 39.886719 C 149.328125 40.144531 149.734375 40.277344 150.246094 40.277344 Z M 156.5 41.5 L 156.5 29.328125 L 158.335938 29.328125 L 158.335938 41.5 Z M 160.515625 41.5 L 160.515625 29.328125 L 162.351562 29.328125 L 162.351562 41.5 Z M 168.394531 41.773438 C 167.546875 41.773438 166.785156 41.574219 166.117188 41.175781 C 165.449219 40.78125 164.921875 40.234375 164.535156 39.546875 C 164.160156 38.855469 163.976562 38.066406 163.976562 37.183594 C 163.976562 36.355469 164.15625 35.589844 164.519531 34.886719 C 164.882812 34.183594 165.386719 33.625 166.03125 33.203125 C 166.691406 32.773438 167.441406 32.558594 168.292969 32.558594 C 169.1875 32.558594 169.949219 32.75 170.570312 33.136719 C 171.207031 33.519531 171.6875 34.046875 172.015625 34.71875 C 172.34375 35.386719 172.507812 36.140625 172.507812 36.976562 C 172.507812 37.101562 172.503906 37.214844 172.492188 37.316406 C 172.492188 37.421875 172.488281 37.5 172.476562 37.554688 L 165.777344 37.554688 C 165.867188 38.417969 166.167969 39.0625 166.679688 39.492188 C 167.199219 39.925781 167.789062 40.140625 168.445312 40.140625 C 169.035156 40.140625 169.523438 40.007812 169.90625 39.75 C 170.292969 39.476562 170.601562 39.144531 170.824219 38.746094 L 172.339844 39.476562 C 171.964844 40.15625 171.453125 40.710938 170.808594 41.144531 C 170.164062 41.5625 169.359375 41.773438 168.394531 41.773438 Z M 168.308594 34.121094 C 167.699219 34.121094 167.175781 34.308594 166.746094 34.683594 C 166.316406 35.058594 166.027344 35.554688 165.878906 36.179688 L 170.691406 36.179688 C 170.667969 35.882812 170.570312 35.578125 170.402344 35.261719 C 170.230469 34.945312 169.972656 34.675781 169.617188 34.460938 C 169.277344 34.234375 168.84375 34.121094 168.308594 34.121094 Z M 174.882812 38.984375 L 174.882812 34.429688 L 173.367188 34.429688 L 173.367188 32.828125 L 174.882812 32.828125 L 174.882812 30.382812 L 176.71875 30.382812 L 176.71875 32.828125 L 178.84375 32.828125 L 178.84375 34.429688 L 176.71875 34.429688 L 176.71875 38.59375 C 176.71875 39.023438 176.804688 39.351562 176.972656 39.578125 C 177.152344 39.804688 177.453125 39.917969 177.875 39.917969 C 178.089844 39.917969 178.269531 39.890625 178.417969 39.835938 C 178.574219 39.777344 178.734375 39.699219 178.894531 39.597656 L 178.894531 41.382812 C 178.699219 41.460938 178.496094 41.523438 178.28125 41.566406 C 178.066406 41.613281 177.8125 41.636719 177.515625 41.636719 C 176.710938 41.636719 176.070312 41.402344 175.597656 40.9375 C 175.121094 40.464844 174.882812 39.8125 174.882812 38.984375 Z M 174.882812 38.984375 "/>
<path style="fill:none;stroke-width:1;stroke-linecap:butt;stroke-linejoin:miter;stroke:rgb(45.490196%,46.666667%,45.882353%);stroke-opacity:1;stroke-miterlimit:4;" d="M 27.5 0.5 L 171.5 0.5 C 186.410156 0.5 198.5 12.589844 198.5 27.5 C 198.5 42.410156 186.410156 54.5 171.5 54.5 L 27.5 54.5 C 12.589844 54.5 0.5 42.410156 0.5 27.5 C 0.5 12.589844 12.589844 0.5 27.5 0.5 Z M 27.5 0.5 "/>
</g>
</svg>
