<svg id="Capa_1" data-name="Capa 1" xmlns="http://www.w3.org/2000/svg" viewBox="0 0 1124.59 301.35"><defs><style>.cls-1{fill:#122a59;}</style></defs><path class="cls-1" d="M233.47,218.46c-9.31.69-21.59-4.58-28-11.31-7.59-8-10.14-19-10.55-29.31-.44-10.65,4.44-22.07,12.23-30a40.79,40.79,0,0,1,29.28-12.19c9.59,0,17.69,3,24.2,8.83s9.67,12.89,9.49,21.37c-.05,2.29-.22,2.82-1.56,3.53q-19.27,10.57-38.53,21.19c-1.92,1-2.35,2.29-1.54,3.17,1.31,1.42,5,2.3,9.6,2.3,3.81,0,8.3-1.06,13.47-3.35a45,45,0,0,0,12.57-8,1.35,1.35,0,0,1,2.3,1.06c-1.53,8.4-2.28,12.61-3.74,21A7.06,7.06,0,0,1,261,210C253.3,216.89,243,217.74,233.47,218.46ZM223.28,162.3a11.5,11.5,0,0,0-2.37,10.42c.47,1.24,1.13,1.59,2,1.06l17.45-9.89c1.34-.7,1.34-.88.71-2.12-1.44-2.82-4.06-4.23-8-4.23A12.1,12.1,0,0,0,223.28,162.3Z"/><path class="cls-1" d="M550.47,146.77c6.3,6.44,10.76,19,10.36,28.07-.49,11.2-4.32,22.89-12.22,31.25-7.67,8.14-18.7,12.13-29.41,12.37-9.2.2-21.66-4.39-28.32-11s-11-19.07-10.57-28.25c.47-11.21,4.46-22.8,12.41-31.08,7.82-8.13,19-12.26,29.79-12.54C531.62,135.41,544.05,140.2,550.47,146.77Zm-42.76,30.54c-.16,8.66,4.9,14.66,12.36,14.66,7.8,0,13.36-6.53,13.52-15.19s-4.84-14.65-12.31-14.65C513.49,162.13,507.87,168.66,507.71,177.31Z"/><path class="cls-1" d="M844.38,203a17,17,0,0,1-5.76,11.18,14,14,0,0,1-11,4c-8.59-.78-14.53-8.59-13.61-17.72.94-9.31,8.34-15.91,16.93-15.13C839.32,186.05,845.29,194,844.38,203Z"/><path class="cls-1" d="M650.52,191.06l-2.42.85c-4.12,1.16-6.12.39-6.28-3.09,1.29-7.84,2.67-16.18,3.87-23.4q2.09-12.15,4.18-24.32c.45-2.44.93-5,1.23-6.64s0-2.2-1.29-1.76c-9.65,3.4-19.63,7.17-28.51,10.07-1.44.46-2.81.64-2.81,1.75,0,1.76.22,3.33.35,4.89.55,6.29.55,6.29-2.77,25.81-.07.4-.12.77-.16,1.13L614.8,183c-1.26,5.83-4.12,8.66-9.42,8.66-5.72,0-8.8-3.53-8.43-9.15.93-5.66,1.87-11.35,2.73-16.5q2-11.49,3.92-23c.54-2.9,1.21-6.49,1.59-8.55.29-1.65-.17-2.16-1.29-1.76-9.65,3.4-19.85,7-28.73,9.84-1.44.47-2.81.65-2.8,1.75,0,1.77.21,3.34.34,4.9.44,5,.53,6-1.16,16.25-.42,2.54-2.25,14.29-2.49,15.42-4.45,20.92-3.08,34.21,17.2,37.37,7.71,1.2,17.35-2.27,27.74-11.49,1.29,2,7.13,17.66,32.25,9.3h0l.11-.05.2-.06s0,0,0,0c1-.4,1.32-.78,1.47-2.06v-.05c0-.08,0-.15.07-.22,1.14-6.52,2.48-14.08,3.65-20.76,0,0,0,0,0,0C652.11,191.18,651.72,190.64,650.52,191.06Z"/><path class="cls-1" d="M1040.14,191.06l-2.42.85c-4.12,1.16-6.12.39-6.28-3.09,1.29-7.84,2.66-16.18,3.87-23.4q2.09-12.15,4.18-24.32c.45-2.44.93-5,1.23-6.64s0-2.2-1.29-1.76c-9.65,3.4-19.63,7.17-28.52,10.07-1.43.46-2.8.64-2.8,1.75,0,1.76.21,3.33.35,4.89.55,6.29.55,6.29-2.77,25.81-.07.4-.12.77-.16,1.13l-1.11,6.63c-1.26,5.83-4.12,8.66-9.42,8.66-5.72,0-8.8-3.53-8.43-9.15.93-5.66,1.87-11.35,2.73-16.5q2-11.49,3.92-23c.54-2.9,1.2-6.49,1.59-8.55.29-1.65-.17-2.16-1.29-1.76-9.65,3.4-19.85,7-28.74,9.84-1.43.47-2.8.65-2.8,1.75,0,1.77.22,3.34.35,4.9.44,5,.53,6-1.16,16.25-.42,2.54-2.25,14.29-2.49,15.42-4.45,20.92-3.08,34.21,17.2,37.37,7.7,1.2,17.35-2.27,27.74-11.49,1.29,2,7.13,17.66,32.25,9.3h0l.11-.05a1.39,1.39,0,0,0,.19-.06l0,0c1-.4,1.33-.78,1.48-2.06v-.05a1,1,0,0,0,.06-.22c1.15-6.52,2.49-14.08,3.66-20.76v0C1041.73,191.18,1041.34,190.64,1040.14,191.06Z"/><path class="cls-1" d="M716.33,127.74c-3.69,1.08-7.19,2.25-10.68,3.41-1.26.43-1.49-.17-1.29-1.76,1.15-6.79,4.93-26.33,5.46-29.15.24-1.6-.05-2.21-1.29-1.77-9.65,3.41-21,7-29.93,9.85-1.44.46-2.81.64-2.8,1.75,0,1.76.21,3.34.34,4.9a33.29,33.29,0,0,1-.45,10.28c-.51,3.19-1.06,6.53-1.75,10.74-.2,1.42-.72,1.78-2,2.25-2.79,1-5.44,1.94-8.14,2.88-1.41.5-1.66.36-1.86,1.77-1.51,8.76-2.27,13.14-3.78,21.89-.2,1.42.2,2.23,1.45,1.77,2.67-1,5-1.79,8.22-2.93,1.26-.44,1.41-.26,1.21,1.33q-1.54,9.17-3,18.33h0c-.57,2.7-.91,5.4-1.31,8.12a52.28,52.28,0,0,0-.28,12.37c.74,7.7,7.89,13.45,15.37,14.35A46.55,46.55,0,0,0,700.28,216h0c1.09-.5,1.61-.6,1.89-2.18.79-4.65,1.76-9.16,2.54-13.72,0,0,1-5.54,1.37-7.32.3-1.63-.09-2.18-1.29-1.76l-2.8,1c-5.43,1.7-7.54.47-6.83-5.28.07-.56.16-1.13.25-1.69h0c1.09-6.71,3.66-20.21,4.79-26.92.19-1.41.6-1.32,2-1.76,3.51-1.1,6.38-2,9.95-3.23,1.41-.49,1.66-.35,1.86-1.76,1.51-8.76,2.28-13.14,3.79-21.9C718,128.09,717.61,127.36,716.33,127.74Z"/><path class="cls-1" d="M474.41,191.26l-2,.69-.09,0c-5.61,1.81-7.79.62-7.07-5.21.07-.56.16-1.13.24-1.69h0q1.59-9.62,3.23-19.23c2.89-15-4.7-29.77-20.59-29.85-10.29-.05-19.17,6.49-24.54,15.19-.18.53-1.17.35-1.32-.18-2.62-9.18-10.63-15-20.42-15-8.79,0-15.82,3.54-21.12,10.78-.51.7-1.51.53-1.32-.18.52-2.83,1.59-8.58,2.11-11.41.28-1.59-.12-2.18-1.29-1.76-9.65,3.4-19.85,7-28.73,9.84-1.43.47-2.8.64-2.8,1.75,0,1.77.21,3.34.35,4.9.55,6.29.55,6.29-2.77,25.81-2.14,12.54-4.12,24.93-6.27,38.85-.17,1.41,0,1.77,1.32,1.77h25.87c1.5,0,1.83-.36,2-1.77q3.19-21,6.67-42c1-6.18,4.34-9.36,9.48-9.36,5.81,0,8.2,4.24,7.25,10.77q-3.47,20.28-6.65,40.61c-.17,1.59,0,1.77,1.32,1.77H413c1.49,0,1.82-.36,2-1.77q3.19-21,6.67-42c.95-6.18,4.34-9.36,9.48-9.36,6,0,8.37,3.88,7,12.18-.45,2.64-.89,5.27-1.33,7.91h0c-.57,2.7-1,5.4-1.36,8.12,0,.16-.05.32-.08.47-.07.47-.16.94-.23,1.42a4.85,4.85,0,0,0-.07.63,40.47,40.47,0,0,0-.62,9.85c.74,7.7,7.89,13.45,15.36,14.35a47.75,47.75,0,0,0,20-1.87l.05,0c1.06-.48,1.57-.6,1.84-2.16.79-4.65,2.55-13.71,2.55-13.71L475.7,193C476,191.39,475.61,190.84,474.41,191.26Z"/><path class="cls-1" d="M803.49,191.26l-2.32.82c-5.41,1.68-7.51.42-6.8-5.32,0-.29.08-.58.13-.88q1.74-10.56,3.55-21.1c1.34-8.3.16-15.19-3.87-20.66S784.57,136,777.1,136a27.85,27.85,0,0,0-22.78,10.78c-.65.67-1.42.53-1.33-.09l.15-.9c2.73-16,5.42-32.09,8-48.17.41-2.44.67-3.92.7-4,.52-2.83,1.59-8.58,2.11-11.41.26-1.59-.1-2.14-1.29-1.76-9.65,3.4-21.22,7.2-30.11,10.1-1.43.46-2.8.64-2.79,1.75,0,1.76.21,3.08.34,4.64.55,6.29.55,6.29-2.77,25.8-.07.42-.12.81-.16,1.19-5,30.22-10.31,60.4-15,90.68-.17,1.41.17,1.77,1.33,1.77H740c1.33,0,1.5-.36,2-1.77q3.28-21,6.84-42c1-6.18,4.34-9.36,10.14-9.36,5.48,0,8.87,4.24,7.93,10.06-.56,3.34-1.11,6.69-1.66,10h0c-.57,2.7-.91,5.4-1.3,8.12a51.76,51.76,0,0,0-.3,12.37c.74,7.7,7.89,13.45,15.37,14.35A47.74,47.74,0,0,0,799,216.24a2.23,2.23,0,0,0,1.85-2.18c.8-4.65,2.55-13.71,2.55-13.71l1.36-7.32C805.08,191.39,804.7,190.84,803.49,191.26Z"/><path class="cls-1" d="M944.05,191.37l-1.78.62c-5.59,1.8-7.75.6-7-5.23,0-.28.08-.56.13-.84q1.68-10.3,3.43-20.61C942.34,150.47,933,136.15,918,136a28.09,28.09,0,0,0-22.95,10.78c-.18.53-1.33.35-1.32-.18.4-2.48.63-3.88,1-6.1s.8-4.31,1.06-5.73c.29-1.6-.14-2.16-1.29-1.76-9.65,3.4-21,6.95-29.93,9.85-1.43.46-2.8.64-2.8,1.75,0,1.76.21,3.33.35,4.89.38,4.37.49,5.71-.59,12.69-2.93,17.45-5.82,34.9-8.52,52.39-.17,1.41,0,1.77,1.32,1.77h26.38c1.49,0,1.82-.36,2-1.77q3.28-21,6.84-42c1.28-6.18,4.67-9.36,10.14-9.36,5.81,0,9,4.06,8.09,10.24-.55,3.28-1.09,6.57-1.64,9.85h0c-.57,2.7-1,5.4-1.37,8.12a52.3,52.3,0,0,0-.33,12.37c.75,7.7,7.89,13.45,15.37,14.35a47.52,47.52,0,0,0,19.72-1.78h0c1-.44,1.48-.57,1.78-1.69h0v-.05c0-.13.06-.27.09-.43.79-4.65,1.76-9.16,2.54-13.72l1.37-7.32C945.64,191.5,945.25,191,944.05,191.37Z"/><path class="cls-1" d="M340.83,172.76c-1.85-3.94-9-34.36-9.26-38.33,0-1.51-1-1.88-1.88-1.09-5.52,5.2-11,10.45-16.27,15.37-.5.3-1.08.16-.93-.53.6-3.46.9-5.19,1.51-8.65a4.66,4.66,0,0,0,0-.61c.27-1.43.52-2.76.7-3.74.27-1.58-.1-2.18-1.29-1.76-9.65,3.4-19.24,7-28.12,9.84-1.44.47-2.81.64-2.8,1.75,0,1.77.21,3.34.34,4.9.45,5.11.27,6.08-1.5,16.74-.08.46-.15.95-.22,1.44q-3.9,23.22-7.53,46.48c-.17,1.41.16,1.77,1.49,1.77h24.71c1.49,0,1.66-.36,1.83-1.77,1.49-10.31,2.28-15.47,3.9-25.78.2-1.25.38-2.44.57-3.58l.07-.05c1-6.52,1.95-12,3.08-18.1.33-1.78,1-1.64,1.61.19,1.94,5.49,4.52,15.4,4.89,19.13.06,1.59.69,1.62,2.05,1l1.27-.7.05,0,1.61-.9,19.12-10.58C341.19,174.34,341.52,174.28,340.83,172.76Z"/><path class="cls-1" d="M129.77,87.89c-.35-1-.66-1-1.71-.55l-1.31,1.24A6.55,6.55,0,0,1,129.77,87.89Z"/><path class="cls-1" d="M260.32,93A60.6,60.6,0,0,0,251.7,70.4c-.2-.32-.57-.7-1.48-.38-5.32,1.83-18.3,6.4-24.52,8.56-.72.3-.66.81-.55,1.08.92,1.73,1.8,3.44,2.61,5.18,3.67,8,1.3,11.92-7.58,11.46A77.93,77.93,0,0,1,202.1,93c-11.38-3.4-21-8.42-31.59-13.7-.82-.36-1.17-.16-1.74.42-3.19,3.18-19.24,18.36-19.24,18.36-1.34,1.31-1.86,1.67-1,3.33,1,1.46,2,2.71,3.13,4.46l0,0c2,2.95,4.07,5.85,5.21,9.1,7.26,20.78,6.05,41.12-4.63,60.45-2.06,3.74-5.48,6.8-8.63,9.76a16.6,16.6,0,0,1-6.18,3.18c-9.61,3.17-17.41-1.68-19.25-11.81-1.74-9.57-.17-19,1.49-28.36a333.78,333.78,0,0,1,14.1-52.06c1.17-3.26,5-13.71,5.48-15.1s-.49-2-1.6-1.58S88,95.63,83.29,97.16c-1.43.46-2.8.64-2.8,1.75,0,1.76.21,3.33.35,4.89.44,5.11.27,6.08-1.5,16.74-.08.46-.15.95-.23,1.44-.39,2.64,1.63,2.85,3,2.39h0c4.21-1.26,8.92-2.72,12.68-4,3.39-1.17,2.71-.46,2.24,1.18a232.52,232.52,0,0,0-8.27,33.38c-1.69,10.43-2.67,20.9-.54,31.43,3.41,16.78,14.27,28.34,29.76,31.21,13.36,2.47,25.86-.15,37.38-7.42a66.52,66.52,0,0,0,22-23.25c12.87-22.11,17.3-45.26,12.29-69.41-.27-1.83,1-1.31,1.64-1.07a148.26,148.26,0,0,0,23.82,6.38,70,70,0,0,0,21.38.83c1-.14,2-.26,3-.46C255.48,120,263,109.15,260.32,93Z"/></svg>