<svg id="Capa_1" data-name="Capa 1" xmlns="http://www.w3.org/2000/svg" viewBox="0 0 1200 1200"><defs>
<style>.cls-1{fill:#fca2ab;}.cls-2{fill:#ef1100;}</style></defs>
<title>v.nu_diagonal_pink_bg_ logo_sc</title>
<rect class="cls-1" width="400" height="200"/>
<path class="cls-2" d="M403.3,683.53c-9.06,2.24-22.05-.91-29.48-6.48-8.8-6.62-13.15-17.08-15.28-27.15-2.2-10.44.71-22.51,7.07-31.63a40.83,40.83,0,0,1,26.85-16.89c9.45-1.56,17.94,0,25.32,4.68s11.68,11.1,12.92,19.48c.34,2.27.25,2.83-.95,3.75q-17.24,13.63-34.46,27.3c-1.73,1.32-1.94,2.66-1,3.39,1.52,1.18,5.26,1.44,9.84.67,3.76-.64,8-2.43,12.73-5.55a44.73,44.73,0,0,0,11.06-9.93,1.35,1.35,0,0,1,2.45.66c-.11,8.55-.15,12.81-.19,21.34a7,7,0,0,1-1.13,3.42C422.6,678.69,412.58,681.25,403.3,683.53Zm-19.4-53.67a11.53,11.53,0,0,0-.6,10.67c.67,1.14,1.38,1.38,2.12.72L401,628.59c1.21-.92,1.18-1.09.35-2.21-1.89-2.54-4.71-3.5-8.63-2.84A12.11,12.11,0,0,0,383.9,629.86Z"/><path class="cls-2" d="M704,550.08c7.29,5.31,13.77,16.92,14.89,26,1.38,11.12-.46,23.29-6.85,32.85-6.22,9.3-16.43,15.07-27,17.09-9,1.73-22.09-.72-29.74-6.09s-14-17-15.13-26.09c-1.4-11.13.6-23.23,7.07-32.71,6.35-9.32,16.66-15.25,27.29-17.32C683.47,542,696.53,544.67,704,550.08Zm-37.08,37.24c1.28,8.56,7.27,13.64,14.63,12.39,7.68-1.29,12.08-8.66,10.8-17.22s-7.22-13.64-14.58-12.4C670,571.39,665.59,578.76,666.87,587.32Z"/><path class="cls-2" d="M764.63,693a17,17,0,0,1-3.82,12,13.9,13.9,0,0,1-10.22,5.74c-8.6.66-15.76-6-16.37-15.21-.62-9.34,5.57-17.07,14.17-17.73C756.82,677.14,764,684,764.63,693Z"/><path class="cls-2" d="M810,573.1l-2.24,1.25c-3.87,1.82-6,1.4-6.71-2,0-8-.06-16.4-.08-23.72q0-12.33.08-24.67c0-2.49.08-5.11.1-6.76s-.4-2.16-1.56-1.53c-8.95,5-18.16,10.35-26.44,14.68-1.34.69-2.66,1.1-2.47,2.19.3,1.74.76,3.26,1.16,4.77,1.58,6.11,1.58,6.11,1.56,25.91q0,.62,0,1.14c0,2.24,0,4.49,0,6.73-.27,5.95-2.62,9.21-7.85,10.1-5.64.95-9.26-2-9.84-7.62,0-5.73,0-11.5-.05-16.72q0-11.65,0-23.31c0-2.95.11-6.61.14-8.7,0-1.67-.52-2.11-1.56-1.52-8.95,5-18.42,10.16-26.7,14.49-1.33.69-2.65,1.1-2.46,2.19.3,1.74.76,3.26,1.15,4.77,1.27,4.89,1.53,5.87,1.56,16.21,0,2.58.16,14.48.11,15.63-.9,21.37,2.66,34.24,23.18,34,7.8-.1,16.73-5.13,25.45-16,1.6,1.76,10,16.23,33.34,3.8h0l.1-.06.18-.09,0,0c1-.57,1.17-1,1.11-2.28v0a1.11,1.11,0,0,0,0-.23c0-6.62.11-14.3.15-21.09v0C811.56,573,811.09,572.49,810,573.1Z"/><path class="cls-2" d="M955.67,644.8,953.43,646c-3.87,1.83-6,1.41-6.71-2,0-7.95-.06-16.4-.08-23.72q0-12.35.07-24.68c0-2.48.09-5.11.11-6.75s-.4-2.17-1.56-1.53c-9,5-18.17,10.34-26.44,14.68-1.34.69-2.66,1.09-2.47,2.19.3,1.73.76,3.25,1.15,4.77,1.59,6.1,1.59,6.1,1.56,25.9,0,.41,0,.79,0,1.15q0,3.36,0,6.72c-.28,6-2.62,9.22-7.86,10.1-5.63,1-9.25-2-9.83-7.61,0-5.74,0-11.5,0-16.73q0-11.65,0-23.31c.05-3,.11-6.6.14-8.69,0-1.68-.52-2.11-1.57-1.53-8.94,5-18.41,10.16-26.69,14.5-1.33.69-2.66,1.09-2.47,2.19.3,1.73.77,3.25,1.16,4.77,1.27,4.89,1.52,5.86,1.56,16.21,0,2.58.16,14.47.11,15.63-.91,21.36,2.66,34.24,23.18,34,7.8-.1,16.73-5.13,25.44-15.94,1.61,1.76,10,16.22,33.35,3.8h0l.1-.06.18-.09,0,0c.95-.56,1.17-1,1.11-2.27v-.05a1,1,0,0,0,0-.23c0-6.62.11-14.29.15-21.08v0C957.26,644.66,956.79,644.19,955.67,644.8Z"/><path class="cls-2" d="M864.33,497.71c-3.46,1.69-6.72,3.42-10,5.15-1.17.63-1.49.08-1.56-1.52,0-6.89.48-26.78.53-29.66,0-1.62-.42-2.17-1.57-1.52-9,5-19.59,10.36-27.87,14.69-1.34.69-2.66,1.1-2.47,2.19.3,1.74.76,3.25,1.16,4.77A33.81,33.81,0,0,1,823.84,502c0,3.23,0,6.61.06,10.88,0,1.43-.41,1.87-1.62,2.56-2.59,1.45-5,2.81-7.55,4.19-1.31.72-1.58.63-1.54,2.05,0,8.89-.06,13.33-.09,22.22,0,1.43.57,2.16,1.73,1.5,2.47-1.41,4.61-2.59,7.62-4.25,1.16-.65,1.34-.49,1.41,1.11q0,9.29,0,18.57h0c-.11,2.75,0,5.47.06,8.22a51.92,51.92,0,0,0,1.79,12.24c2,7.47,10,12,17.54,11.6a46.59,46.59,0,0,0,19.91-5.48h0c1-.67,1.49-.85,1.5-2.46,0-4.72.21-9.32.22-14,0,0,.1-5.64.13-7.44s-.45-2.14-1.57-1.53l-2.59,1.44c-5.07,2.57-7.36,1.71-7.61-4.07,0-.57,0-1.14,0-1.71h0c0-6.8.24-20.54.24-27.34,0-1.43.37-1.4,1.71-2.08,3.28-1.66,6-3,9.27-4.84,1.32-.71,1.59-.62,1.55-2.05,0-8.88,0-13.33.09-22.22C866,497.79,865.52,497.13,864.33,497.71Z"/><path class="cls-2" d="M636.35,608.62l-1.82,1-.08,0c-5.23,2.72-7.58,1.91-7.84-4,0-.57,0-1.14,0-1.71h0q0-9.75,0-19.5c.35-15.24-9.6-28.57-25.28-26-10.16,1.66-17.82,9.58-21.67,19.06-.08.55-1.09.54-1.33,0-4.11-8.61-13-13-22.63-11.4a24.83,24.83,0,0,0-19,14.14c-.39.78-1.39.77-1.33,0,.05-2.87.14-8.72.19-11.6,0-1.61-.48-2.13-1.57-1.52-8.95,5-18.41,10.16-26.69,14.49-1.34.69-2.66,1.1-2.47,2.19.3,1.74.76,3.26,1.16,4.77,1.58,6.11,1.58,6.11,1.56,25.91,0,12.72.09,29.37.28,43.45.07,1.42.29,1.74,1.6,1.52,10.21-1.72,15.31-3.43,25.51-5.15,1.48-.25,1.74-.66,1.68-2.08-.23-14.18-.35-31.61-.42-45.79-.09-6.25,2.72-9.95,7.79-10.81,5.73-1,8.8,2.82,8.94,9.42,0,13.71,0,30,.21,43.71.09,1.6.29,1.74,1.59,1.52,10.14-1.71,15.21-3.39,25.35-5.1,1.48-.25,1.74-.66,1.68-2.08-.23-14.18-.35-30.1-.42-44.28-.09-6.25,2.72-10,7.79-10.81,5.89-1,8.9,2.44,9,10.84,0,2.68,0,5.35,0,8h0c-.11,2.75-.06,5.48,0,8.23,0,.16,0,.32,0,.48v1.43a6.28,6.28,0,0,0,0,.64,40.46,40.46,0,0,0,1,9.81c2,7.47,10,12,17.54,11.6A47.77,47.77,0,0,0,636.07,634s0,0,0,0c1-.65,1.45-.86,1.46-2.44,0-4.71.22-13.94.23-13.94,0-2.68.09-5.65.12-7.45S637.47,608,636.35,608.62Z"/><path class="cls-2" d="M960.84,544.85,958.69,546c-5.05,2.57-7.33,1.67-7.59-4.1,0-.3,0-.6,0-.89q0-10.71,0-21.41c-.06-8.4-2.36-15-7.25-19.72s-10.83-6.41-18.19-5.17A27.86,27.86,0,0,0,905,509.15c-.52.78-1.31.77-1.32.14,0-.3,0-.61,0-.91q0-24.42-.15-48.82c0-2.48,0-4,0-4.1,0-2.87.15-8.72.19-11.6,0-1.61-.45-2.09-1.56-1.52-9,5-19.73,10.64-28,15-1.34.69-2.66,1.1-2.47,2.19.3,1.74.72,3,1.11,4.52,1.59,6.11,1.59,6.11,1.56,25.91,0,.42,0,.81.05,1.19.07,30.64-.12,62.22.26,92.87.07,1.42.46,1.71,1.6,1.52,10.47-1.77,15.7-3.6,26.17-5.37,1.31-.22,1.41-.59,1.67-2.07q-.25-21.29-.25-42.58c-.09-6.25,2.72-10,8.45-10.91,5.39-.91,9.44,2.7,9.48,8.6q0,5.09,0,10.17h0c-.12,2.76,0,5.47.06,8.23a52.43,52.43,0,0,0,1.77,12.24c2,7.47,10,12,17.54,11.59a47.54,47.54,0,0,0,19.48-5.19,2.24,2.24,0,0,0,1.47-2.46c0-4.72.22-14,.23-13.94,0-2.68.09-5.65.12-7.45S962,544.23,960.84,544.85Z"/><path class="cls-2" d="M861,661.1l-1.64.91c-5.22,2.71-7.55,1.88-7.82-4,0-.28,0-.56,0-.84q0-10.45,0-20.91c1-15.22-10.53-27.78-25.36-25.44a28.09,28.09,0,0,0-20.84,14.44c-.08.55-1.25.57-1.33.05,0-2.52,0-3.93,0-6.18s.07-4.38.1-5.83c0-1.62-.5-2.11-1.57-1.52-8.95,5-19.6,10.36-27.87,14.69-1.34.69-2.66,1.1-2.47,2.19.3,1.74.76,3.26,1.16,4.77,1.1,4.25,1.43,5.55,1.53,12.61,0,17.69.07,38.36.32,56.05.06,1.42.29,1.74,1.59,1.52,10.41-1.75,15.61-3.53,26-5.28,1.47-.25,1.74-.66,1.67-2.08-.17-14.19-.24-30.46-.25-44.65.24-6.31,3-10,8.45-10.92,5.72-1,9.58,2.5,9.67,8.76l0,10h0c-.11,2.76,0,5.49,0,8.24A52,52,0,0,0,824,679.92c2,7.47,10,12,17.54,11.59a47.72,47.72,0,0,0,19.16-5h0c.88-.59,1.37-.81,1.48-2h0v0a3,3,0,0,0,0-.44c0-4.72.21-9.33.22-13.95,0,0,.1-5.64.13-7.44S862.09,660.48,861,661.1Z"/><path class="cls-2" d="M501.56,617.6C499.08,614,487,585.23,486,581.35c-.29-1.48-1.33-1.68-2-.76-4.58,6-9.09,12.13-13.48,17.86-.45.39-1,.34-1-.37l.05-8.78a4.86,4.86,0,0,0-.06-.6c0-1.46.05-2.81.06-3.8,0-1.61-.45-2.14-1.56-1.53-8.95,5-17.81,10.06-26.09,14.39-1.34.69-2.66,1.1-2.47,2.19.3,1.74.76,3.26,1.16,4.77,1.28,5,1.27,5.95,1.3,16.76,0,.47,0,.95,0,1.46,0,15.69.09,32.63.31,48.33.07,1.42.45,1.71,1.76,1.49,9.75-1.65,14.62-3.25,24.37-4.9,1.47-.25,1.58-.62,1.51-2-.24-10.42-.32-16.1-.44-26.53,0-1.27,0-2.47,0-3.63l.06-.06c-.07-6.6-.06-12.13,0-18.36,0-1.82.67-1.78,1.62-.08,2.82,5.09,7,14.44,8,18.05.32,1.55,1,1.48,2.18.63l1.15-.91,0,0,1.43-1.15L501,620.13C502.17,619.11,502.49,619,501.56,617.6Z"/><path class="cls-2" d="M406.15,559.09A60.57,60.57,0,0,0,394,538.15c-.25-.28-.68-.59-1.53-.13-4.94,2.66-15,9-20.83,12.08-.67.41-.52.9-.37,1.15,1.19,1.56,2.33,3.11,3.41,4.7,4.91,7.28,3.21,11.55-5.63,12.53a78,78,0,0,1-18.38-.34c-11.78-1.51-22.11-4.9-33.39-8.41-.86-.23-1.17,0-1.64.69-2.63,3.66-16,21.23-16,21.23-1.12,1.51-1.57,2-.43,3.44,1.21,1.28,2.4,2.35,3.8,3.9l0,0c2.41,2.59,5,5.11,6.61,8.14,10.52,19.33,12.62,39.6,5.2,60.4-1.44,4-4.31,7.59-6.95,11a16.51,16.51,0,0,1-5.58,4.14c-9,4.68-17.45,1.16-20.9-8.55-3.27-9.16-3.24-18.72-3.12-28.22a334.44,334.44,0,0,1,5.51-53.65c.63-3.41,2.69-14.34,3-15.8s-.81-1.88-1.83-1.3-46.46,24-50.83,26.23c-1.34.69-2.67,1.09-2.48,2.18.29,1.74.75,3.26,1.13,4.78,1.27,5,1.25,6,1.22,16.76,0,.47,0,1,0,1.46,0,2.67,2.07,2.55,3.32,1.88h0c4-1.93,8.36-4.13,11.86-6,3.16-1.7,2.6-.89,2.41.8a231.17,231.17,0,0,0-2.78,34.29c0,10.55.74,21.05,4.55,31.1,6.07,16,18.65,25.66,34.4,26,13.59.28,25.5-4.33,35.69-13.36a66.34,66.34,0,0,0,18-26.5A100.18,100.18,0,0,0,341,592.5c-.56-1.77.73-1.46,1.44-1.33A147.8,147.8,0,0,0,367,593.62,69.82,69.82,0,0,0,388.23,591c1-.29,1.92-.57,2.85-.92C406.39,584.3,411.36,574.57,406.15,559.09Z"/></svg>